<svg width="939" height="1341" viewBox="0 0 939 1341" fill="none" xmlns="http://www.w3.org/2000/svg">
<g clip-path="url(#clip0_4237_30)">
<mask id="mask0_4237_30" style="mask-type:luminance" maskUnits="userSpaceOnUse" x="-1" y="0" width="941" height="1341">
<path d="M939.5 0.5H-0.5V1340.5H939.5V0.5Z" fill="white"/>
</mask>
<g mask="url(#mask0_4237_30)">
<g opacity="0.3">
<path d="M1386 1328.5H-442.5V12.5H1386V1328.5ZM-440.1 1325.8H1383.7V15.2H-440.1V1325.8Z" fill="url(#paint0_radial_4237_30)"/>
<path d="M1384.8 1194.5H-441.3V1197.2H1384.8V1194.5Z" fill="url(#paint1_radial_4237_30)"/>
<path d="M1384.8 1128.8H-441.3V1131.5H1384.8V1128.8Z" fill="url(#paint2_radial_4237_30)"/>
<path d="M1384.8 1063.1H-441.3V1065.8H1384.8V1063.1Z" fill="url(#paint3_radial_4237_30)"/>
<path d="M1384.8 997.5H-441.3V1000.2H1384.8V997.5Z" fill="url(#paint4_radial_4237_30)"/>
<path d="M1384.8 931.8H-441.3V934.5H1384.8V931.8Z" fill="url(#paint5_radial_4237_30)"/>
<path d="M1384.8 866.1H-441.3V868.8H1384.8V866.1Z" fill="url(#paint6_radial_4237_30)"/>
<path d="M1384.8 800.5H-441.3V803.2H1384.8V800.5Z" fill="url(#paint7_radial_4237_30)"/>
<path d="M1384.8 734.8H-441.3V737.5H1384.8V734.8Z" fill="url(#paint8_radial_4237_30)"/>
<path d="M1384.8 669.2H-441.3V671.9H1384.8V669.2Z" fill="url(#paint9_radial_4237_30)"/>
<path d="M1384.8 603.5H-441.3V606.2H1384.8V603.5Z" fill="url(#paint10_radial_4237_30)"/>
<path d="M1384.8 537.8H-441.3V540.5H1384.8V537.8Z" fill="url(#paint11_radial_4237_30)"/>
<path d="M1384.8 472.1H-441.3V474.8H1384.8V472.1Z" fill="url(#paint12_radial_4237_30)"/>
<path d="M1384.8 406.5H-441.3V409.2H1384.8V406.5Z" fill="url(#paint13_radial_4237_30)"/>
<path d="M1384.8 340.8H-441.3V343.5H1384.8V340.8Z" fill="url(#paint14_radial_4237_30)"/>
<path d="M1384.8 275.2H-441.3V277.9H1384.8V275.2Z" fill="url(#paint15_radial_4237_30)"/>
<path d="M1384.8 209.5H-441.3V212.2H1384.8V209.5Z" fill="url(#paint16_radial_4237_30)"/>
<path d="M1384.8 143.8H-441.3V146.5H1384.8V143.8Z" fill="url(#paint17_radial_4237_30)"/>
<path d="M888 13.8999H885.6V1327.2H888V13.8999Z" fill="url(#paint18_radial_4237_30)"/>
<path d="M832.6 13.8999H830.2V1327.2H832.6V13.8999Z" fill="url(#paint19_radial_4237_30)"/>
<path d="M777.3 13.8999H774.9V1327.2H777.3V13.8999Z" fill="url(#paint20_radial_4237_30)"/>
<path d="M722 13.8999H719.6V1327.2H722V13.8999Z" fill="url(#paint21_radial_4237_30)"/>
<path d="M666.6 13.8999H664.2V1327.2H666.6V13.8999Z" fill="url(#paint22_radial_4237_30)"/>
<path d="M611.3 13.8999H608.9V1327.2H611.3V13.8999Z" fill="url(#paint23_radial_4237_30)"/>
<path d="M555.9 13.8999H553.5V1327.2H555.9V13.8999Z" fill="url(#paint24_radial_4237_30)"/>
<path d="M500.6 13.8999H498.2V1327.2H500.6V13.8999Z" fill="url(#paint25_radial_4237_30)"/>
<path d="M445.3 13.8999H442.9V1327.2H445.3V13.8999Z" fill="url(#paint26_radial_4237_30)"/>
<path d="M389.9 13.8999H387.5V1327.2H389.9V13.8999Z" fill="url(#paint27_radial_4237_30)"/>
<path d="M334.6 13.8999H332.2V1327.2H334.6V13.8999Z" fill="url(#paint28_radial_4237_30)"/>
<path d="M279.3 13.8999H276.9V1327.2H279.3V13.8999Z" fill="url(#paint29_radial_4237_30)"/>
<path d="M223.9 13.8999H221.5V1327.2H223.9V13.8999Z" fill="url(#paint30_radial_4237_30)"/>
<path d="M168.6 13.8999H166.2V1327.2H168.6V13.8999Z" fill="url(#paint31_radial_4237_30)"/>
<path d="M113.2 13.8999H110.8V1327.2H113.2V13.8999Z" fill="url(#paint32_radial_4237_30)"/>
<path d="M57.9 13.8999H55.5V1327.2H57.9V13.8999Z" fill="url(#paint33_radial_4237_30)"/>
<path d="M2.59995 13.8999H0.199951V1327.2H2.59995V13.8999Z" fill="url(#paint34_radial_4237_30)"/>
</g>
</g>
</g>
<defs>
<radialGradient id="paint0_radial_4237_30" cx="0" cy="0" r="1" gradientUnits="userSpaceOnUse" gradientTransform="translate(505.509 753.4) scale(498.119 400.7)">
<stop stop-color="#044484"/>
<stop offset="1" stop-color="#044484" stop-opacity="0"/>
</radialGradient>
<radialGradient id="paint1_radial_4237_30" cx="0" cy="0" r="1" gradientUnits="userSpaceOnUse" gradientTransform="translate(505.499 587.863) scale(444.781 510.954)">
<stop stop-color="#044484"/>
<stop offset="1" stop-color="#044484" stop-opacity="0"/>
</radialGradient>
<radialGradient id="paint2_radial_4237_30" cx="0" cy="0" r="1" gradientUnits="userSpaceOnUse" gradientTransform="translate(505.499 587.847) scale(444.781 510.93)">
<stop stop-color="#044484"/>
<stop offset="1" stop-color="#044484" stop-opacity="0"/>
</radialGradient>
<radialGradient id="paint3_radial_4237_30" cx="0" cy="0" r="1" gradientUnits="userSpaceOnUse" gradientTransform="translate(505.499 587.793) scale(444.781 510.953)">
<stop stop-color="#044484"/>
<stop offset="1" stop-color="#044484" stop-opacity="0"/>
</radialGradient>
<radialGradient id="paint4_radial_4237_30" cx="0" cy="0" r="1" gradientUnits="userSpaceOnUse" gradientTransform="translate(505.499 587.788) scale(444.781 510.965)">
<stop stop-color="#044484"/>
<stop offset="1" stop-color="#044484" stop-opacity="0"/>
</radialGradient>
<radialGradient id="paint5_radial_4237_30" cx="0" cy="0" r="1" gradientUnits="userSpaceOnUse" gradientTransform="translate(505.499 587.74) scale(444.781 510.954)">
<stop stop-color="#044484"/>
<stop offset="1" stop-color="#044484" stop-opacity="0"/>
</radialGradient>
<radialGradient id="paint6_radial_4237_30" cx="0" cy="0" r="1" gradientUnits="userSpaceOnUse" gradientTransform="translate(505.499 587.741) scale(444.781 510.954)">
<stop stop-color="#044484"/>
<stop offset="1" stop-color="#044484" stop-opacity="0"/>
</radialGradient>
<radialGradient id="paint7_radial_4237_30" cx="0" cy="0" r="1" gradientUnits="userSpaceOnUse" gradientTransform="translate(505.499 587.726) scale(444.781 510.965)">
<stop stop-color="#044484"/>
<stop offset="1" stop-color="#044484" stop-opacity="0"/>
</radialGradient>
<radialGradient id="paint8_radial_4237_30" cx="0" cy="0" r="1" gradientUnits="userSpaceOnUse" gradientTransform="translate(505.499 587.695) scale(444.781 510.965)">
<stop stop-color="#044484"/>
<stop offset="1" stop-color="#044484" stop-opacity="0"/>
</radialGradient>
<radialGradient id="paint9_radial_4237_30" cx="0" cy="0" r="1" gradientUnits="userSpaceOnUse" gradientTransform="translate(505.499 587.664) scale(444.781 510.965)">
<stop stop-color="#044484"/>
<stop offset="1" stop-color="#044484" stop-opacity="0"/>
</radialGradient>
<radialGradient id="paint10_radial_4237_30" cx="0" cy="0" r="1" gradientUnits="userSpaceOnUse" gradientTransform="translate(505.499 587.665) scale(444.781 510.965)">
<stop stop-color="#044484"/>
<stop offset="1" stop-color="#044484" stop-opacity="0"/>
</radialGradient>
<radialGradient id="paint11_radial_4237_30" cx="0" cy="0" r="1" gradientUnits="userSpaceOnUse" gradientTransform="translate(505.499 587.617) scale(444.781 510.954)">
<stop stop-color="#044484"/>
<stop offset="1" stop-color="#044484" stop-opacity="0"/>
</radialGradient>
<radialGradient id="paint12_radial_4237_30" cx="0" cy="0" r="1" gradientUnits="userSpaceOnUse" gradientTransform="translate(505.499 587.609) scale(444.781 510.954)">
<stop stop-color="#044484"/>
<stop offset="1" stop-color="#044484" stop-opacity="0"/>
</radialGradient>
<radialGradient id="paint13_radial_4237_30" cx="0" cy="0" r="1" gradientUnits="userSpaceOnUse" gradientTransform="translate(505.499 587.579) scale(444.781 510.96)">
<stop stop-color="#044484"/>
<stop offset="1" stop-color="#044484" stop-opacity="0"/>
</radialGradient>
<radialGradient id="paint14_radial_4237_30" cx="0" cy="0" r="1" gradientUnits="userSpaceOnUse" gradientTransform="translate(505.499 587.572) scale(444.781 510.965)">
<stop stop-color="#044484"/>
<stop offset="1" stop-color="#044484" stop-opacity="0"/>
</radialGradient>
<radialGradient id="paint15_radial_4237_30" cx="0" cy="0" r="1" gradientUnits="userSpaceOnUse" gradientTransform="translate(505.499 587.545) scale(444.781 510.954)">
<stop stop-color="#044484"/>
<stop offset="1" stop-color="#044484" stop-opacity="0"/>
</radialGradient>
<radialGradient id="paint16_radial_4237_30" cx="0" cy="0" r="1" gradientUnits="userSpaceOnUse" gradientTransform="translate(505.499 587.515) scale(444.781 510.957)">
<stop stop-color="#044484"/>
<stop offset="1" stop-color="#044484" stop-opacity="0"/>
</radialGradient>
<radialGradient id="paint17_radial_4237_30" cx="0" cy="0" r="1" gradientUnits="userSpaceOnUse" gradientTransform="translate(505.499 587.466) scale(444.781 510.96)">
<stop stop-color="#044484"/>
<stop offset="1" stop-color="#044484" stop-opacity="0"/>
</radialGradient>
<radialGradient id="paint18_radial_4237_30" cx="0" cy="0" r="1" gradientUnits="userSpaceOnUse" gradientTransform="translate(505.489 587.62) scale(444.745 511.078)">
<stop stop-color="#044484"/>
<stop offset="1" stop-color="#044484" stop-opacity="0"/>
</radialGradient>
<radialGradient id="paint19_radial_4237_30" cx="0" cy="0" r="1" gradientUnits="userSpaceOnUse" gradientTransform="translate(505.498 587.62) scale(444.778 511.129)">
<stop stop-color="#044484"/>
<stop offset="1" stop-color="#044484" stop-opacity="0"/>
</radialGradient>
<radialGradient id="paint20_radial_4237_30" cx="0" cy="0" r="1" gradientUnits="userSpaceOnUse" gradientTransform="translate(505.497 587.62) scale(444.778 511.129)">
<stop stop-color="#044484"/>
<stop offset="1" stop-color="#044484" stop-opacity="0"/>
</radialGradient>
<radialGradient id="paint21_radial_4237_30" cx="0" cy="0" r="1" gradientUnits="userSpaceOnUse" gradientTransform="translate(505.506 587.62) scale(444.769 511.129)">
<stop stop-color="#044484"/>
<stop offset="1" stop-color="#044484" stop-opacity="0"/>
</radialGradient>
<radialGradient id="paint22_radial_4237_30" cx="0" cy="0" r="1" gradientUnits="userSpaceOnUse" gradientTransform="translate(505.497 587.62) scale(444.778 511.129)">
<stop stop-color="#044484"/>
<stop offset="1" stop-color="#044484" stop-opacity="0"/>
</radialGradient>
<radialGradient id="paint23_radial_4237_30" cx="0" cy="0" r="1" gradientUnits="userSpaceOnUse" gradientTransform="translate(505.497 587.62) scale(444.778 511.129)">
<stop stop-color="#044484"/>
<stop offset="1" stop-color="#044484" stop-opacity="0"/>
</radialGradient>
<radialGradient id="paint24_radial_4237_30" cx="0" cy="0" r="1" gradientUnits="userSpaceOnUse" gradientTransform="translate(505.495 587.62) scale(444.789 511.129)">
<stop stop-color="#044484"/>
<stop offset="1" stop-color="#044484" stop-opacity="0"/>
</radialGradient>
<radialGradient id="paint25_radial_4237_30" cx="0" cy="0" r="1" gradientUnits="userSpaceOnUse" gradientTransform="translate(505.499 587.62) scale(444.764 511.129)">
<stop stop-color="#044484"/>
<stop offset="1" stop-color="#044484" stop-opacity="0"/>
</radialGradient>
<radialGradient id="paint26_radial_4237_30" cx="0" cy="0" r="1" gradientUnits="userSpaceOnUse" gradientTransform="translate(505.497 587.62) scale(444.774 511.129)">
<stop stop-color="#044484"/>
<stop offset="1" stop-color="#044484" stop-opacity="0"/>
</radialGradient>
<radialGradient id="paint27_radial_4237_30" cx="0" cy="0" r="1" gradientUnits="userSpaceOnUse" gradientTransform="translate(505.495 587.62) scale(444.774 511.129)">
<stop stop-color="#044484"/>
<stop offset="1" stop-color="#044484" stop-opacity="0"/>
</radialGradient>
<radialGradient id="paint28_radial_4237_30" cx="0" cy="0" r="1" gradientUnits="userSpaceOnUse" gradientTransform="translate(505.497 587.62) scale(444.784 511.129)">
<stop stop-color="#044484"/>
<stop offset="1" stop-color="#044484" stop-opacity="0"/>
</radialGradient>
<radialGradient id="paint29_radial_4237_30" cx="0" cy="0" r="1" gradientUnits="userSpaceOnUse" gradientTransform="translate(505.496 587.62) scale(444.784 511.129)">
<stop stop-color="#044484"/>
<stop offset="1" stop-color="#044484" stop-opacity="0"/>
</radialGradient>
<radialGradient id="paint30_radial_4237_30" cx="0" cy="0" r="1" gradientUnits="userSpaceOnUse" gradientTransform="translate(505.492 587.62) scale(444.774 511.129)">
<stop stop-color="#044484"/>
<stop offset="1" stop-color="#044484" stop-opacity="0"/>
</radialGradient>
<radialGradient id="paint31_radial_4237_30" cx="0" cy="0" r="1" gradientUnits="userSpaceOnUse" gradientTransform="translate(505.5 587.62) scale(444.787 511.129)">
<stop stop-color="#044484"/>
<stop offset="1" stop-color="#044484" stop-opacity="0"/>
</radialGradient>
<radialGradient id="paint32_radial_4237_30" cx="0" cy="0" r="1" gradientUnits="userSpaceOnUse" gradientTransform="translate(505.5 587.62) scale(444.784 511.129)">
<stop stop-color="#044484"/>
<stop offset="1" stop-color="#044484" stop-opacity="0"/>
</radialGradient>
<radialGradient id="paint33_radial_4237_30" cx="0" cy="0" r="1" gradientUnits="userSpaceOnUse" gradientTransform="translate(505.501 587.62) scale(444.785 511.129)">
<stop stop-color="#044484"/>
<stop offset="1" stop-color="#044484" stop-opacity="0"/>
</radialGradient>
<radialGradient id="paint34_radial_4237_30" cx="0" cy="0" r="1" gradientUnits="userSpaceOnUse" gradientTransform="translate(505.493 587.62) scale(444.78 511.129)">
<stop stop-color="#044484"/>
<stop offset="1" stop-color="#044484" stop-opacity="0"/>
</radialGradient>
<clipPath id="clip0_4237_30">
<rect width="939" height="1341" fill="white"/>
</clipPath>
</defs>
</svg>
