<svg width="305" height="117" viewBox="0 0 305 117" fill="none" xmlns="http://www.w3.org/2000/svg">
<path d="M52.2001 22.5202C52.4801 17.1202 56.32 14.1602 61.92 14.1602C67.92 14.1602 71.1201 17.5602 71.1201 21.8802C71.1201 25.5202 68.8401 27.7602 66.7201 28.4802V28.6402C69.6801 29.5602 71.64 31.9602 71.64 35.9202C71.64 40.6802 68.28 44.2002 62.16 44.2002C56.4 44.2002 52.04 41.3202 51.8 35.2002H57.2401C57.3601 37.7202 59.0401 39.5202 62.0401 39.5202C64.8401 39.5202 66.28 37.7602 66.28 35.4402C66.28 32.1602 64.2001 30.9602 60.0401 30.9602H58.8801V26.3602H60.0401C63.3201 26.3602 65.7201 25.4402 65.7201 22.5602C65.7201 20.2802 64.32 18.9202 61.76 18.9202C59.04 18.9202 57.88 20.6802 57.68 22.5202H52.2001ZM76.0653 29.0402C76.0653 20.6002 78.6254 14.2802 86.8654 14.2802C95.1054 14.2802 97.6653 20.6002 97.6653 29.0402C97.6653 37.5602 95.1054 43.9202 86.8654 43.9202C78.6254 43.9202 76.0653 37.5602 76.0653 29.0402ZM92.1454 29.0402C92.1454 24.0402 91.5854 19.4802 86.8654 19.4802C82.1454 19.4802 81.5853 24.0402 81.5853 29.0402C81.5853 34.2402 82.1454 38.7202 86.8654 38.7202C91.5854 38.7202 92.1454 34.2402 92.1454 29.0402ZM110.645 19.5602H115.925V27.3202H123.485V32.2002H115.925V39.9602H110.645V32.2002H103.085V27.3202H110.645V19.5602Z" fill="#044484"/>
<path d="M21.9999 13C12.7197 13 5.16992 20.55 5.16992 29.83C5.16992 39.11 12.7198 46.66 21.9999 46.66C31.2799 46.66 38.8299 39.11 38.8299 29.83C38.8299 20.55 31.28 13 21.9999 13ZM29.8975 40.7001L21.9999 36.9627L14.1023 40.7001L15.2162 32.0342L9.22145 25.6782L17.8073 24.0597L21.9999 16.3939L26.1923 24.0596L34.7784 25.678L28.7835 32.0341L29.8975 40.7001Z" fill="#044484"/>
<path d="M24.516 26.3669L22 21.7666L19.484 26.3669L14.3314 27.3381L17.929 31.1526L17.2605 36.3532L22 34.1103L26.7394 36.3532L26.0709 31.1526L29.6686 27.3381L24.516 26.3669Z" fill="black"/>
<path d="M10.2433 51.1094C11.3815 50.9441 12.4716 50.559 13.4633 49.9713V47.2698C12.3333 46.7155 11.2554 46.0486 10.2433 45.2749V51.1094Z" fill="#044484"/>
<path d="M30.5367 49.9713C31.5284 50.559 32.6184 50.9441 33.7567 51.1094V45.2749C32.7446 46.0486 31.6667 46.7154 30.5367 47.2698V49.9713Z" fill="#044484"/>
<path d="M16.0414 48.3096V56.9999C17.95 56.7244 19.705 55.838 21.0794 54.4357L22 53.4966L22.9206 54.4357C24.2951 55.8379 26.05 56.7244 27.9586 56.9999V48.3096C26.0581 48.9201 24.0537 49.2381 22 49.2381C19.9464 49.2381 17.9419 48.9201 16.0414 48.3096Z" fill="#044484"/>
<path d="M8.464 75.6262L4.198 67.4362H7.042L9.742 73.1782L12.424 67.4362H15.232L10.984 75.6262V80.0002H8.464V75.6262ZM20.9694 71.9362C19.7634 71.9362 18.8094 72.7102 18.6114 74.0782H23.3454C23.3094 72.7642 22.2654 71.9362 20.9694 71.9362ZM25.7034 76.8682C25.1634 78.7042 23.5074 80.1622 21.0414 80.1622C18.1434 80.1622 16.0374 78.1462 16.0374 75.0142C16.0374 71.8642 18.0894 69.8662 21.0414 69.8662C23.9214 69.8662 25.9554 71.8282 25.9554 74.7982C25.9554 75.1222 25.9374 75.4462 25.8834 75.7702H18.5934C18.7194 77.2462 19.7274 78.0742 20.9874 78.0742C22.0674 78.0742 22.6614 77.5342 22.9854 76.8682H25.7034ZM27.1467 74.9782C27.1467 71.8642 29.1627 69.8662 31.7007 69.8662C33.3027 69.8662 34.4007 70.6222 34.9947 71.4502V70.0282H37.5327V80.0002H34.9947V78.5422C34.4007 79.4062 33.2667 80.1622 31.6827 80.1622C29.1627 80.1622 27.1467 78.0922 27.1467 74.9782ZM34.9947 75.0142C34.9947 73.1242 33.7347 72.0802 32.3487 72.0802C30.9987 72.0802 29.7207 73.0882 29.7207 74.9782C29.7207 76.8682 30.9987 77.9482 32.3487 77.9482C33.7347 77.9482 34.9947 76.9042 34.9947 75.0142ZM42.514 75.0322V80.0002H39.994V70.0282H42.514V71.5762C43.144 70.5502 44.188 69.8842 45.574 69.8842V72.5302H44.908C43.414 72.5302 42.514 73.1062 42.514 75.0322ZM55.0113 77.1562C55.0113 78.8662 53.5173 80.1622 51.0873 80.1622C48.5853 80.1622 46.8393 78.7042 46.7313 76.8502H49.2693C49.3593 77.6062 50.0613 78.1822 51.0693 78.1822C52.0593 78.1822 52.5993 77.7322 52.5993 77.1562C52.5993 75.3742 46.9653 76.5082 46.9653 72.8542C46.9653 71.1982 48.4413 69.8662 50.9073 69.8662C53.3193 69.8662 54.7773 71.1802 54.9213 73.1602H52.5093C52.4373 72.3862 51.8253 71.8642 50.8353 71.8642C49.8993 71.8642 49.4133 72.2422 49.4133 72.8182C49.4133 74.6362 54.9393 73.5022 55.0113 77.1562ZM70.999 75.0142C70.999 78.1462 68.695 80.1622 65.797 80.1622C62.917 80.1622 60.739 78.1462 60.739 75.0142C60.739 71.8642 62.989 69.8662 65.869 69.8662C68.749 69.8662 70.999 71.8642 70.999 75.0142ZM63.295 75.0142C63.295 76.9942 64.447 77.9662 65.797 77.9662C67.129 77.9662 68.407 76.9942 68.407 75.0142C68.407 73.0162 67.165 72.0622 65.833 72.0622C64.501 72.0622 63.295 73.0162 63.295 75.0142ZM73.1175 80.0002V72.0982H71.9835V70.0282H73.1175V69.5242C73.1175 67.0762 74.5035 65.9422 77.3115 66.0142V68.1382C76.0875 68.1022 75.6735 68.4982 75.6735 69.6142V70.0282H77.4195V72.0982H75.6735V80.0002H73.1175ZM82.7296 73.7002C82.7296 69.9382 85.4836 67.2742 89.1016 67.2742C91.8916 67.2742 94.1596 68.7682 95.0056 71.3422H92.1076C91.5136 70.1362 90.4336 69.5422 89.0836 69.5422C86.8876 69.5422 85.3216 71.1442 85.3216 73.7002C85.3216 76.2382 86.8876 77.8582 89.0836 77.8582C90.4336 77.8582 91.5136 77.2642 92.1076 76.0402H95.0056C94.1596 78.6322 91.8916 80.1082 89.1016 80.1082C85.4836 80.1082 82.7296 77.4622 82.7296 73.7002ZM106.788 75.0142C106.788 78.1462 104.484 80.1622 101.586 80.1622C98.706 80.1622 96.528 78.1462 96.528 75.0142C96.528 71.8642 98.778 69.8662 101.658 69.8662C104.538 69.8662 106.788 71.8642 106.788 75.0142ZM99.084 75.0142C99.084 76.9942 100.236 77.9662 101.586 77.9662C102.918 77.9662 104.196 76.9942 104.196 75.0142C104.196 73.0162 102.954 72.0622 101.622 72.0622C100.29 72.0622 99.084 73.0162 99.084 75.0142ZM122.587 80.0002V74.4922C122.587 72.9082 121.705 72.0802 120.373 72.0802C119.023 72.0802 118.141 72.9082 118.141 74.4922V80.0002H115.621V74.4922C115.621 72.9082 114.739 72.0802 113.407 72.0802C112.039 72.0802 111.157 72.9082 111.157 74.4922V80.0002H108.637V70.0282H111.157V71.2342C111.787 70.4062 112.849 69.8842 114.091 69.8842C115.639 69.8842 116.917 70.5502 117.601 71.7922C118.249 70.6582 119.563 69.8842 121.021 69.8842C123.415 69.8842 125.107 71.3962 125.107 74.1502V80.0002H122.587ZM130.018 71.4862C130.63 70.5682 131.8 69.8662 133.312 69.8662C135.868 69.8662 137.866 71.8642 137.866 74.9782C137.866 78.0922 135.868 80.1622 133.312 80.1622C131.746 80.1622 130.63 79.4422 130.018 78.5782V80.0002H127.498V66.6802H130.018V71.4862ZM135.292 74.9782C135.292 73.0882 134.014 72.0802 132.646 72.0802C131.296 72.0802 130.018 73.1242 130.018 75.0142C130.018 76.9042 131.296 77.9482 132.646 77.9482C134.014 77.9482 135.292 76.8682 135.292 74.9782ZM139.697 80.0002V70.0282H142.217V80.0002H139.697ZM140.975 68.8402C140.075 68.8402 139.427 68.1922 139.427 67.3642C139.427 66.5362 140.075 65.8882 140.975 65.8882C141.857 65.8882 142.523 66.5362 142.523 67.3642C142.523 68.1922 141.857 68.8402 140.975 68.8402ZM151.691 80.0002V74.4922C151.691 72.8902 150.809 72.0262 149.477 72.0262C148.109 72.0262 147.227 72.8902 147.227 74.4922V80.0002H144.707V70.0282H147.227V71.2702C147.875 70.4242 148.955 69.8842 150.233 69.8842C152.555 69.8842 154.211 71.3962 154.211 74.1502V80.0002H151.691ZM160.891 71.9362C159.685 71.9362 158.731 72.7102 158.533 74.0782H163.267C163.231 72.7642 162.187 71.9362 160.891 71.9362ZM165.625 76.8682C165.085 78.7042 163.429 80.1622 160.963 80.1622C158.065 80.1622 155.959 78.1462 155.959 75.0142C155.959 71.8642 158.011 69.8662 160.963 69.8662C163.843 69.8662 165.877 71.8282 165.877 74.7982C165.877 75.1222 165.859 75.4462 165.805 75.7702H158.515C158.641 77.2462 159.649 78.0742 160.909 78.0742C161.989 78.0742 162.583 77.5342 162.907 76.8682H165.625ZM167.069 74.9782C167.069 71.8642 169.085 69.8662 171.641 69.8662C172.955 69.8662 174.215 70.4782 174.899 71.4142V66.6802H177.455V80.0002H174.899V78.5242C174.305 79.4422 173.189 80.1622 171.623 80.1622C169.085 80.1622 167.069 78.0922 167.069 74.9782ZM174.917 75.0142C174.917 73.1242 173.657 72.0802 172.271 72.0802C170.921 72.0802 169.643 73.0882 169.643 74.9782C169.643 76.8682 170.921 77.9482 172.271 77.9482C173.657 77.9482 174.917 76.9042 174.917 75.0142ZM191.495 67.4182V69.4702H186.725V72.6202H190.955V74.6182H186.725V77.9482H191.495V80.0002H184.205V67.4182H191.495ZM199.293 80.0002L197.241 76.9042L195.423 80.0002H192.723L195.981 74.9962L192.687 70.0282H195.531L197.565 73.1062L199.401 70.0282H202.101L198.825 74.9962L202.137 80.0002H199.293ZM206.026 71.4682C206.62 70.6222 207.772 69.8662 209.32 69.8662C211.876 69.8662 213.874 71.8642 213.874 74.9782C213.874 78.0922 211.876 80.1622 209.32 80.1622C207.754 80.1622 206.638 79.3882 206.026 78.5782V84.7522H203.506V70.0282H206.026V71.4682ZM211.3 74.9782C211.3 73.0882 210.022 72.0802 208.654 72.0802C207.304 72.0802 206.026 73.1242 206.026 75.0142C206.026 76.9042 207.304 77.9482 208.654 77.9482C210.022 77.9482 211.3 76.8682 211.3 74.9782ZM219.989 71.9362C218.783 71.9362 217.829 72.7102 217.631 74.0782H222.365C222.329 72.7642 221.285 71.9362 219.989 71.9362ZM224.723 76.8682C224.183 78.7042 222.527 80.1622 220.061 80.1622C217.163 80.1622 215.057 78.1462 215.057 75.0142C215.057 71.8642 217.109 69.8662 220.061 69.8662C222.941 69.8662 224.975 71.8282 224.975 74.7982C224.975 75.1222 224.957 75.4462 224.903 75.7702H217.613C217.739 77.2462 218.747 78.0742 220.007 78.0742C221.087 78.0742 221.681 77.5342 222.005 76.8682H224.723ZM229.334 75.0322V80.0002H226.814V70.0282H229.334V71.5762C229.964 70.5502 231.008 69.8842 232.394 69.8842V72.5302H231.728C230.234 72.5302 229.334 73.1062 229.334 75.0322ZM234.092 80.0002V70.0282H236.612V80.0002H234.092ZM235.37 68.8402C234.47 68.8402 233.822 68.1922 233.822 67.3642C233.822 66.5362 234.47 65.8882 235.37 65.8882C236.252 65.8882 236.918 66.5362 236.918 67.3642C236.918 68.1922 236.252 68.8402 235.37 68.8402ZM243.385 71.9362C242.179 71.9362 241.225 72.7102 241.027 74.0782H245.761C245.725 72.7642 244.681 71.9362 243.385 71.9362ZM248.119 76.8682C247.579 78.7042 245.923 80.1622 243.457 80.1622C240.559 80.1622 238.453 78.1462 238.453 75.0142C238.453 71.8642 240.505 69.8662 243.457 69.8662C246.337 69.8662 248.371 71.8282 248.371 74.7982C248.371 75.1222 248.353 75.4462 248.299 75.7702H241.009C241.135 77.2462 242.143 78.0742 243.403 78.0742C244.483 78.0742 245.077 77.5342 245.401 76.8682H248.119ZM257.195 80.0002V74.4922C257.195 72.8902 256.313 72.0262 254.981 72.0262C253.613 72.0262 252.731 72.8902 252.731 74.4922V80.0002H250.211V70.0282H252.731V71.2702C253.379 70.4242 254.459 69.8842 255.737 69.8842C258.059 69.8842 259.715 71.3962 259.715 74.1502V80.0002H257.195ZM261.463 75.0142C261.463 71.8822 263.515 69.8662 266.395 69.8662C268.879 69.8662 270.553 71.1622 271.093 73.3942H268.375C268.087 72.5482 267.421 72.0082 266.377 72.0082C264.973 72.0082 264.037 73.0702 264.037 75.0142C264.037 76.9582 264.973 78.0022 266.377 78.0022C267.421 78.0022 268.069 77.5342 268.375 76.6342H271.093C270.553 78.7582 268.879 80.1622 266.395 80.1622C263.515 80.1622 261.463 78.1462 261.463 75.0142ZM277.223 71.9362C276.017 71.9362 275.063 72.7102 274.865 74.0782H279.599C279.563 72.7642 278.519 71.9362 277.223 71.9362ZM281.957 76.8682C281.417 78.7042 279.761 80.1622 277.295 80.1622C274.397 80.1622 272.291 78.1462 272.291 75.0142C272.291 71.8642 274.343 69.8662 277.295 69.8662C280.175 69.8662 282.209 71.8282 282.209 74.7982C282.209 75.1222 282.191 75.4462 282.137 75.7702H274.847C274.973 77.2462 275.981 78.0742 277.241 78.0742C278.321 78.0742 278.915 77.5342 279.239 76.8682H281.957Z" fill="black"/>
</svg>
