<?xml version="1.0" encoding="utf-8"?>
<!-- Generator: Adobe Illustrator 24.3.0, SVG Export Plug-In . SVG Version: 6.00 Build 0)  -->
<svg version="1.1" id="Layer_1" xmlns="http://www.w3.org/2000/svg" xmlns:xlink="http://www.w3.org/1999/xlink" x="0px" y="0px"
	 viewBox="0 0 669.9 432" style="enable-background:new 0 0 669.9 432;" xml:space="preserve">
<style type="text/css">
	.st0{fill:none;stroke:#B0B0B0;stroke-width:0.6;stroke-linejoin:round;stroke-opacity:0.7;stroke-dasharray:2.22,0.96;}
	.st1{fill:none;stroke:#B0B0B0;stroke-width:0.5202;stroke-linejoin:round;stroke-opacity:0.7;stroke-dasharray:1.9247,0.8323;}
	.st2{fill:#333333;}
	.st3{fill:#1A1A1A;stroke:#1A1A1A;stroke-width:0.8;stroke-linejoin:round;}
	.st4{fill:#1A1A1A;}
	.st5{fill:none;stroke:#020202;stroke-width:1.4447;stroke-linejoin:round;stroke-dasharray:5.3454,2.3115;}
	.st6{fill:none;stroke:#E31E24;stroke-width:1.9267;stroke-linecap:square;stroke-linejoin:round;}
	.st7{fill:none;stroke:#1A1A1A;stroke-linecap:square;}
	.st8{fill:none;stroke:#1A1A1A;stroke-width:0.9533;stroke-linecap:square;}
	.st9{opacity:0.8;fill:#FFFFFF;stroke:#CCCCCC;enable-background:new    ;}
	.st10{fill:none;stroke:#000000;stroke-width:1.5;stroke-linejoin:round;stroke-dasharray:5.55,2.4;}
	.st11{fill:none;stroke:#E31E24;stroke-width:2;stroke-linecap:square;stroke-linejoin:round;}
	.st12{opacity:0.2;fill:#E31E24;}
</style>
<g>
	<g id="line2d_2">
		<g>
			<g>
				<path id="ma78321f115" class="st3" d="M152.1,390.3v-3.5"/>
			</g>
		</g>
	</g>
	<g id="text_1">
		<g transform="translate(142.215606 402.558125) scale(0.12 -0.12)">
			<g>
				<path id="DejaVuSans-32" class="st4" d="M66.6,3.5H101v-8.3H54.7v8.3c3.7,3.9,8.8,9.1,15.3,15.6c6.5,6.5,10.5,10.7,12.2,12.6
					c3.2,3.5,5.4,6.5,6.6,9c1.3,2.5,1.9,4.9,1.9,7.2c0,3.9-1.4,7-4.1,9.5c-2.7,2.4-6.3,3.7-10.6,3.7c-3.1,0-6.4-0.5-9.8-1.6
					c-3.4-1.1-7.1-2.7-11-4.9v10c4,1.6,7.7,2.8,11.1,3.6c3.5,0.8,6.6,1.2,9.5,1.2c7.6,0,13.6-1.9,18.1-5.7c4.5-3.8,6.7-8.8,6.7-15.1
					c0-3-0.6-5.8-1.7-8.5c-1.1-2.7-3.2-5.8-6.1-9.5C92,29.7,89.4,27,85,22.5C80.7,17.9,74.5,11.6,66.6,3.5z"/>
			</g>
		</g>
	</g>
	<g id="line2d_4">
		<g>
			<g>
				<path id="ma78321f115_1_" class="st3" d="M272.5,390.3v-3.5"/>
			</g>
		</g>
	</g>
	<g id="text_2">
		<g transform="translate(275.509545 402.558125) scale(0.12 -0.12)">
			<g>
				<path id="DejaVuSans-34" class="st4" d="M-30.1,60.2L-55,21.3h24.9V60.2z M-32.7,68.8h12.4V21.3h10.4v-8.2h-10.4V-4.1h-9.8v17.2
					H-63v9.5L-32.7,68.8z"/>
			</g>
		</g>
	</g>
	<g id="line2d_6">
		<g>
			<g>
				<path id="ma78321f115_2_" class="st3" d="M513.3,390.3v-3.5"/>
			</g>
		</g>
	</g>
	<g id="text_3">
		<g transform="translate(408.803485 402.558125) scale(0.12 -0.12)">
			<g>
				<path id="DejaVuSans-36" class="st4" d="M-147.9,37.8c-4.4,0-7.9-1.5-10.5-4.5c-2.6-3-3.9-7.2-3.9-12.4c0-5.2,1.3-9.4,3.9-12.4
					c2.6-3,6.1-4.6,10.5-4.6c4.4,0,7.9,1.5,10.5,4.6c2.6,3.1,3.9,7.2,3.9,12.4c0,5.3-1.3,9.4-3.9,12.4
					C-140,36.3-143.5,37.8-147.9,37.8z M-128.3,68.7v-9c-2.5,1.2-5,2.1-7.5,2.7c-2.5,0.6-5,0.9-7.5,0.9c-6.5,0-11.5-2.2-14.9-6.6
					c-3.4-4.4-5.4-11-5.9-19.9c1.9,2.8,4.3,5,7.2,6.5c2.9,1.5,6.1,2.3,9.6,2.3c7.3,0,13.1-2.2,17.4-6.7c4.2-4.4,6.4-10.5,6.4-18.1
					c0-7.5-2.2-13.5-6.6-18c-4.4-4.5-10.3-6.8-17.7-6.8c-8.4,0-14.9,3.2-19.3,9.7c-4.5,6.5-6.7,15.8-6.7,28.1
					c0,11.5,2.7,20.7,8.2,27.6s12.8,10.3,22,10.3c2.5,0,5-0.2,7.5-0.7S-131,69.7-128.3,68.7z"/>
			</g>
		</g>
	</g>
	<g id="line2d_8">
		<g>
			<g>
				<path id="ma78321f115_3_" class="st3" d="M633.8,390.3v-3.5"/>
			</g>
		</g>
	</g>
	<g id="text_4">
		<g transform="translate(542.097424 402.558125) scale(0.12 -0.12)">
			<g>
				<path id="DejaVuSans-38" class="st4" d="M-262.6,30.6c-4.7,0-8.4-1.3-11.1-3.8c-2.7-2.5-4-6-4-10.3c0-4.4,1.3-7.8,4-10.4
					c2.7-2.5,6.4-3.8,11.1-3.8s8.4,1.3,11.1,3.8c2.7,2.5,4.1,6,4.1,10.3c0,4.4-1.3,7.8-4,10.3C-254.1,29.3-257.9,30.6-262.6,30.6z
					 M-272.4,34.8c-4.2,1-7.5,3-9.9,5.9c-2.4,2.9-3.5,6.4-3.5,10.6c0,5.8,2.1,10.4,6.2,13.8c4.2,3.4,9.8,5.1,17.1,5.1
					c7.3,0,13-1.7,17.1-5.1c4.1-3.4,6.2-8,6.2-13.8c0-4.2-1.2-7.7-3.5-10.6c-2.4-2.9-5.6-4.9-9.8-5.9c4.8-1.1,8.4-3.3,11.1-6.5
					c2.7-3.2,4-7.2,4-11.8c0-7.1-2.2-12.5-6.5-16.3c-4.3-3.8-10.5-5.7-18.5-5.7c-8,0-14.2,1.9-18.5,5.7c-4.3,3.8-6.5,9.2-6.5,16.3
					c0,4.6,1.3,8.6,4,11.8C-280.9,31.5-277.2,33.7-272.4,34.8z M-276,50.3c0-3.8,1.2-6.7,3.5-8.8c2.4-2.1,5.7-3.2,9.9-3.2
					c4.2,0,7.6,1.1,9.9,3.2c2.4,2.1,3.6,5.1,3.6,8.8c0,3.8-1.2,6.7-3.6,8.8c-2.4,2.1-5.7,3.2-9.9,3.2c-4.3,0-7.6-1.1-9.9-3.2
					C-274.9,57.1-276,54.1-276,50.3z"/>
			</g>
		</g>
	</g>
	<g id="line2d_10">
		<g>
			<g>
				<path id="ma78321f115_4_" class="st3" d="M392.9,390.3v-3.5"/>
			</g>
		</g>
	</g>
	<g id="text_5">
		<g transform="translate(671.573864 402.558125) scale(0.12 -0.12)">
			<g>
				<path id="DejaVuSans-31" class="st4" d="M-368.4,1.1h16.1v55.6l-17.5-3.5v9l17.4,3.5h9.9V1.1h16.1v-8.3h-42V1.1z"/>
			</g>
			<g>
				<path id="DejaVuSans-30" class="st4" d="M-285.4,59.2c-5.1,0-8.9-2.5-11.5-7.5c-2.6-5-3.8-12.5-3.8-22.5c0-10,1.3-17.5,3.8-22.5
					c2.6-5,6.4-7.5,11.5-7.5c5.1,0,8.9,2.5,11.5,7.5c2.6,5,3.8,12.5,3.8,22.5c0,10-1.3,17.5-3.8,22.5
					C-276.4,56.7-280.2,59.2-285.4,59.2z M-285.4,67c8.2,0,14.4-3.2,18.7-9.7c4.3-6.5,6.5-15.8,6.5-28.1c0-12.3-2.2-21.6-6.5-28.1
					c-4.3-6.5-10.6-9.7-18.7-9.7c-8.2,0-14.4,3.2-18.7,9.7c-4.3,6.5-6.5,15.8-6.5,28.1c0,12.3,2.2,21.7,6.5,28.1
					C-299.8,63.8-293.5,67-285.4,67z"/>
			</g>
		</g>
	</g>
	<g id="line2d_12">
		<g>
			<g>
				<path id="m1c70fbdfe3" class="st3" d="M48.1,331.8h3.5"/>
			</g>
		</g>
	</g>
	<g id="text_7">
		<g transform="translate(26.81125 336.394984) scale(0.12 -0.12)">
			<g>
				<path id="DejaVuSans-32_1_" class="st4" d="M21.5,53.5h34.4v-8.3H9.6v8.3c3.7,3.9,8.8,9.1,15.3,15.6
					c6.5,6.5,10.5,10.7,12.2,12.6c3.2,3.5,5.4,6.5,6.6,9c1.3,2.5,1.9,4.9,1.9,7.2c0,3.9-1.4,7-4.1,9.5c-2.7,2.4-6.3,3.7-10.6,3.7
					c-3.1,0-6.4-0.5-9.8-1.6c-3.4-1.1-7.1-2.7-11-4.9v10c4,1.6,7.7,2.8,11.1,3.6c3.5,0.8,6.6,1.2,9.5,1.2c7.6,0,13.6-1.9,18.1-5.7
					c4.5-3.8,6.7-8.8,6.7-15.1c0-3-0.6-5.8-1.7-8.5c-1.1-2.7-3.2-5.8-6.1-9.5c-0.8-0.9-3.4-3.7-7.8-8.2
					C35.6,67.9,29.4,61.6,21.5,53.5z"/>
			</g>
			<g>
				<path d="M73.1,121.5h10.2v-67h33.5v-8.1H73.1V121.5z"/>
			</g>
		</g>
	</g>
	<g id="line2d_14">
		<g>
			<g>
				<path id="m1c70fbdfe3_1_" class="st3" d="M48.1,271.5h3.5"/>
			</g>
		</g>
	</g>
	<g id="text_8">
		<g transform="translate(26.81125 276.021624) scale(0.12 -0.12)">
			<g>
				<path id="DejaVuSans-34_1_" class="st4" d="M39.6,108.5L14.7,69.6h24.9V108.5z M37,117.1h12.4V69.6h10.4v-8.2H49.4V44.2h-9.8
					v17.2H6.7v9.5L37,117.1z"/>
			</g>
			<g>
				<path d="M73.1,119.7h10.2v-67h33.5v-8.1H73.1V119.7z"/>
			</g>
		</g>
	</g>
	<g id="line2d_16">
		<g>
			<g>
				<path id="m1c70fbdfe3_2_" class="st3" d="M48.1,211.1h3.5"/>
			</g>
		</g>
	</g>
	<g id="text_9">
		<g transform="translate(26.81125 215.648265) scale(0.12 -0.12)">
			<g>
				<path id="DejaVuSans-36_1_" class="st4" d="M35.8,83.6c-4.4,0-7.9-1.5-10.5-4.5c-2.6-3-3.9-7.2-3.9-12.4c0-5.2,1.3-9.4,3.9-12.4
					c2.6-3,6.1-4.6,10.5-4.6s7.9,1.5,10.5,4.6c2.6,3.1,3.9,7.2,3.9,12.4c0,5.3-1.3,9.4-3.9,12.4C43.7,82.1,40.2,83.6,35.8,83.6z
					 M55.4,114.5v-9c-2.5,1.2-5,2.1-7.5,2.7c-2.5,0.6-5,0.9-7.5,0.9c-6.5,0-11.5-2.2-14.9-6.6c-3.4-4.4-5.4-11-5.9-19.9
					c1.9,2.8,4.3,5,7.2,6.5c2.9,1.5,6.1,2.3,9.6,2.3c7.3,0,13.1-2.2,17.4-6.7c4.2-4.4,6.4-10.5,6.4-18.1c0-7.5-2.2-13.5-6.6-18
					c-4.4-4.5-10.3-6.8-17.7-6.8c-8.4,0-14.9,3.2-19.3,9.7C12,58,9.8,67.3,9.8,79.6c0,11.5,2.7,20.7,8.2,27.6
					c5.5,6.9,12.8,10.3,22,10.3c2.5,0,5-0.2,7.5-0.7S52.6,115.5,55.4,114.5z"/>
			</g>
			<g>
				<path d="M73.1,118.5h10.2v-67h33.5v-8.1H73.1V118.5z"/>
			</g>
		</g>
	</g>
	<g id="line2d_18">
		<g>
			<g>
				<path id="m1c70fbdfe3_3_" class="st3" d="M48.1,150.7h3.5"/>
			</g>
		</g>
	</g>
	<g id="text_10">
		<g transform="translate(26.81125 155.274906) scale(0.12 -0.12)">
			<g>
				<path id="DejaVuSans-38_1_" class="st4" d="M34.6,78.8c-4.7,0-8.4-1.3-11.1-3.8c-2.7-2.5-4-6-4-10.3c0-4.4,1.3-7.8,4-10.4
					c2.7-2.5,6.4-3.8,11.1-3.8s8.4,1.3,11.1,3.8c2.7,2.5,4.1,6,4.1,10.3c0,4.4-1.3,7.8-4,10.3C43,77.6,39.3,78.8,34.6,78.8z
					 M24.7,83c-4.2,1-7.5,3-9.9,5.9c-2.4,2.9-3.5,6.4-3.5,10.6c0,5.8,2.1,10.4,6.2,13.8c4.2,3.4,9.8,5.1,17.1,5.1
					c7.3,0,13-1.7,17.1-5.1s6.2-8,6.2-13.8c0-4.2-1.2-7.7-3.5-10.6c-2.4-2.9-5.6-4.9-9.8-5.9c4.8-1.1,8.4-3.3,11.1-6.5
					c2.7-3.2,4-7.2,4-11.8c0-7.1-2.2-12.5-6.5-16.3c-4.3-3.8-10.5-5.7-18.5-5.7c-8,0-14.2,1.9-18.5,5.7c-4.3,3.8-6.5,9.2-6.5,16.3
					c0,4.6,1.3,8.6,4,11.8C16.2,79.8,19.9,81.9,24.7,83z M21.1,98.6c0-3.8,1.2-6.7,3.5-8.8c2.4-2.1,5.7-3.2,9.9-3.2
					c4.2,0,7.6,1.1,9.9,3.2c2.4,2.1,3.6,5.1,3.6,8.8c0,3.8-1.2,6.7-3.6,8.8c-2.4,2.1-5.7,3.2-9.9,3.2c-4.3,0-7.6-1.1-9.9-3.2
					C22.3,105.3,21.1,102.4,21.1,98.6z"/>
			</g>
			<g>
				<path d="M73.1,119.3h10.2v-67h33.5v-8.1H73.1V119.3z"/>
			</g>
		</g>
	</g>
	<g id="line2d_20">
		<g>
			<g>
				<path id="m1c70fbdfe3_4_" class="st3" d="M48.1,90.3h3.5"/>
			</g>
		</g>
	</g>
	<g id="text_11">
		<g transform="translate(26.81125 94.901546) scale(0.12 -0.12)">
			<g>
				<path id="DejaVuSans-31_1_" class="st4" d="M-41,52.5h16.1v55.6l-17.5-3.5v9l17.4,3.5h9.9V52.5H1v-8.3h-42V52.5z"/>
			</g>
			<g>
				<path id="DejaVuSans-30_5_" class="st4" d="M32.1,110.6c-5.1,0-8.9-2.5-11.5-7.5c-2.6-5-3.8-12.5-3.8-22.5
					c0-10,1.3-17.5,3.8-22.5c2.6-5,6.4-7.5,11.5-7.5c5.1,0,8.9,2.5,11.5,7.5c2.6,5,3.8,12.5,3.8,22.5c0,10-1.3,17.5-3.8,22.5
					C41.1,108.1,37.2,110.6,32.1,110.6z M32.1,118.4c8.2,0,14.4-3.2,18.7-9.7c4.3-6.5,6.5-15.8,6.5-28.1c0-12.3-2.2-21.6-6.5-28.1
					c-4.3-6.5-10.6-9.7-18.7-9.7c-8.2,0-14.4,3.2-18.7,9.7c-4.3,6.5-6.5,15.8-6.5,28.1c0,12.3,2.2,21.7,6.5,28.1
					C17.7,115.2,23.9,118.4,32.1,118.4z"/>
			</g>
			<g>
				<path d="M73.1,118.2h10.2v-67h33.5V43H73.1V118.2z"/>
			</g>
		</g>
	</g>
	<path class="st5" d="M78.1,374.1l61.8-18.1l61.8-18.1l61.8-18.1l61.8-18.1l61.8-18.1l61.8-18.1l61.8-18.1l61.8-18.1l61.8-18.1"/>
	<path class="st6" d="M78.1,373.1l61.9-21.4l61.9-23.9l61.9-26.8l61.9-30l61.9-33.6l61.9-37.7l61.9-42.2l61.9-47.3l61.9-52.9"/>
	<g id="patch_3">
		<path class="st7" d="M48.1,389.9V41.4"/>
	</g>
	<path class="st8" d="M48.1,389.9h599.6"/>
	<g id="legend_1">
		<g id="patch_5">
			<path class="st9" d="M61,88.7h159.2c1.3,0,2-0.7,2-2V58.4c0-1.3-0.7-2-2-2H61c-1.3,0-2,0.7-2,2v28.4C59,88.1,59.7,88.7,61,88.7z"
				/>
		</g>
		<g id="line2d_23">
			<path class="st10" d="M63,64.5h10h10"/>
		</g>
		<g id="text_15">
			<g transform="translate(86.395 57.998438) scale(0.1 -0.1)">
				<g>
					<path id="DejaVuSans-54" class="st2" d="M46.1-26.8h61.7v-8.3H81.9v-64.6H72v64.6H46.1V-26.8z"/>
				</g>
				<g>
					<path id="DejaVuSans-6f_5_" class="st2" d="M121.1-51.3c-4.8,0-8.6-1.9-11.4-5.6c-2.8-3.8-4.2-8.9-4.2-15.5s1.4-11.7,4.2-15.5
						c2.8-3.8,6.6-5.6,11.5-5.6c4.8,0,8.6,1.9,11.4,5.7c2.8,3.8,4.2,8.9,4.2,15.4c0,6.5-1.4,11.6-4.2,15.4
						C129.7-53.2,125.9-51.3,121.1-51.3z M121.1-43.7c7.8,0,13.9-2.5,18.4-7.6c4.5-5.1,6.7-12.1,6.7-21.1c0-8.9-2.2-16-6.7-21.1
						c-4.5-5.1-10.6-7.6-18.4-7.6c-7.8,0-14,2.5-18.4,7.6C98.2-88.4,96-81.4,96-72.4c0,9,2.2,16,6.7,21.1
						C107.1-46.3,113.2-43.7,121.1-43.7z"/>
				</g>
				<g>
					<path id="DejaVuSans-74_3_" class="st2" d="M170-29.5V-45h18.5v-7H170v-29.7c0-4.5,0.6-7.3,1.8-8.6c1.2-1.3,3.7-1.9,7.5-1.9
						h9.2v-7.5h-9.2c-6.9,0-11.7,1.3-14.4,3.9c-2.6,2.6-4,7.3-4,14.1V-52h-6.6v7h6.6v15.5H170z"/>
				</g>
				<g>
					<path id="DejaVuSans-61_3_" class="st2" d="M225.1-72.2c-7.3,0-12.3-0.8-15.1-2.5c-2.8-1.7-4.2-4.5-4.2-8.5
						c0-3.2,1.1-5.7,3.2-7.6c2.1-1.9,5-2.8,8.6-2.8c5,0,9,1.8,12,5.3c3,3.5,4.5,8.2,4.5,14.1v2H225.1z M243.1-68.5v-31.2h-9v8.3
						c-2.1-3.3-4.6-5.8-7.7-7.3s-6.8-2.4-11.2-2.4c-5.6,0-10,1.6-13.4,4.7c-3.3,3.1-5,7.4-5,12.6c0,6.1,2.1,10.8,6.2,13.9
						c4.1,3.1,10.3,4.7,18.4,4.7h12.6v0.9c0,4.1-1.4,7.3-4.1,9.6s-6.5,3.4-11.5,3.4c-3.1,0-6.2-0.4-9.1-1.1c-3-0.8-5.8-1.9-8.5-3.4
						v8.3c3.3,1.3,6.5,2.2,9.6,2.8c3.1,0.6,6.1,1,9,1c7.9,0,13.8-2.1,17.7-6.2C241.1-54,243.1-60.2,243.1-68.5z"/>
				</g>
				<g>
					<path id="DejaVuSans-6c_1_" class="st2" d="M261.6-23.7h9v-76h-9V-23.7z"/>
				</g>
				<g>
					<path id="DejaVuSans-49_1_" class="st2" d="M321.5-26.8h9.9v-72.9h-9.9V-26.8z"/>
				</g>
				<g>
					<path id="DejaVuSans-6e_2_" class="st2" d="M396.1-66.7v-33h-9V-67c0,5.2-1,9-3,11.6c-2,2.6-5,3.9-9.1,3.9
						c-4.9,0-8.7-1.5-11.5-4.6c-2.8-3.1-4.2-7.3-4.2-12.6v-30.9h-9V-45h9v-8.5c2.2,3.3,4.7,5.8,7.6,7.4c2.9,1.6,6.3,2.4,10.1,2.4
						c6.3,0,11-1.9,14.2-5.8C394.5-53.4,396.1-59.2,396.1-66.7z"/>
				</g>
				<g>
					<path id="DejaVuSans-76" class="st2" d="M407.6-45h9.5l17.1-45.9L451.3-45h9.5l-20.5-54.7h-12.2L407.6-45z"/>
				</g>
				<g>
					<path id="DejaVuSans-65_5_" class="st2" d="M520-70.1v-4.4h-41.3c0.4-6.2,2.3-10.9,5.6-14.1c3.3-3.2,8-4.9,13.9-4.9
						c3.4,0,6.8,0.4,10,1.3c3.2,0.8,6.5,2.1,9.7,3.8v-8.5c-3.2-1.4-6.5-2.4-9.9-3.1c-3.4-0.7-6.8-1.1-10.3-1.1
						c-8.7,0-15.6,2.5-20.7,7.6c-5.1,5.1-7.6,12-7.6,20.6c0,8.9,2.4,16,7.2,21.3c4.8,5.3,11.4,7.9,19.6,7.9c7.4,0,13.2-2.4,17.5-7.1
						C517.8-55.6,520-62,520-70.1z M511-67.5c-0.1,4.9-1.4,8.8-4.1,11.8c-2.7,2.9-6.2,4.4-10.7,4.4c-5,0-9-1.4-12-4.2
						c-3-2.8-4.7-6.8-5.2-12L511-67.5z"/>
				</g>
				<g>
					<path id="DejaVuSans-73_2_" class="st2" d="M569.6-46.6v-8.5c-2.5,1.3-5.2,2.3-7.9,2.9c-2.7,0.7-5.6,1-8.5,1
						c-4.5,0-7.8-0.7-10-2s-3.3-3.4-3.3-6.2c0-2.1,0.8-3.7,2.4-4.9s4.8-2.3,9.6-3.4l3.1-0.7c6.4-1.4,10.9-3.3,13.6-5.8s4-6,4-10.4
						c0-5.1-2-9.1-6-12.1c-4-3-9.5-4.4-16.6-4.4c-2.9,0-6,0.3-9.2,0.9s-6.5,1.4-10,2.6v9.3c3.3-1.7,6.6-3,9.8-3.9
						c3.2-0.9,6.4-1.3,9.6-1.3c4.2,0,7.5,0.7,9.8,2.2c2.3,1.4,3.4,3.5,3.4,6.1c0,2.4-0.8,4.3-2.5,5.6c-1.6,1.3-5.2,2.6-10.8,3.8
						l-3.1,0.7c-5.6,1.2-9.6,3-12.1,5.4c-2.5,2.4-3.7,5.8-3.7,10c0,5.1,1.8,9.1,5.5,11.9c3.6,2.8,8.8,4.2,15.5,4.2
						c3.3,0,6.4-0.2,9.4-0.7C564.4-44.9,567.1-45.7,569.6-46.6z"/>
				</g>
				<g>
					<path id="DejaVuSans-74_4_" class="st2" d="M595.7-29.5V-45h18.5v-7h-18.5v-29.7c0-4.5,0.6-7.3,1.8-8.6
						c1.2-1.3,3.7-1.9,7.5-1.9h9.2v-7.5H605c-6.9,0-11.7,1.3-14.4,3.9c-2.6,2.6-4,7.3-4,14.1V-52h-6.6v7h6.6v15.5H595.7z"/>
				</g>
				<g>
					<path id="DejaVuSans-65_6_" class="st2" d="M672.8-70.1v-4.4h-41.3c0.4-6.2,2.3-10.9,5.6-14.1s8-4.9,13.9-4.9
						c3.4,0,6.8,0.4,10,1.3s6.5,2.1,9.7,3.8v-8.5c-3.2-1.4-6.5-2.4-9.9-3.1s-6.8-1.1-10.3-1.1c-8.7,0-15.6,2.5-20.7,7.6
						c-5.1,5.1-7.6,12-7.6,20.6c0,8.9,2.4,16,7.2,21.3c4.8,5.3,11.4,7.9,19.6,7.9c7.4,0,13.2-2.4,17.5-7.1
						C670.7-55.6,672.8-62,672.8-70.1z M663.8-67.5c-0.1,4.9-1.4,8.8-4.1,11.8c-2.7,2.9-6.2,4.4-10.7,4.4c-5,0-9-1.4-12-4.2
						s-4.7-6.8-5.2-12L663.8-67.5z"/>
				</g>
				<g>
					<path id="DejaVuSans-64" class="st2" d="M723.5-53.3v29.6h9v-76h-9v8.2c-1.9-3.2-4.3-5.7-7.2-7.2c-2.9-1.6-6.3-2.4-10.4-2.4
						c-6.6,0-12,2.6-16.1,7.9c-4.1,5.3-6.2,12.2-6.2,20.8s2.1,15.5,6.2,20.8c4.2,5.3,9.5,7.9,16.1,7.9c4,0,7.5-0.8,10.4-2.4
						C719.2-47.7,721.6-50.1,723.5-53.3z M692.9-72.4c0-6.6,1.4-11.8,4.1-15.5s6.5-5.6,11.2-5.6s8.5,1.9,11.2,5.6
						c2.7,3.8,4.1,8.9,4.1,15.5s-1.4,11.8-4.1,15.5c-2.7,3.8-6.5,5.6-11.2,5.6s-8.5-1.9-11.2-5.6S692.9-65.8,692.9-72.4z"/>
				</g>
			</g>
		</g>
		<g id="line2d_24">
			<path class="st11" d="M63,79.1h10h10"/>
		</g>
		<g id="text_16">
			<g transform="translate(86.395 72.676563) scale(0.1 -0.1)">
				<g>
					<path id="DejaVuSans-46" class="st2" d="M56.2-26.8h41.9v-8.3h-32v-21.5H95v-8.3H66.1v-34.8h-9.9V-26.8z"/>
				</g>
				<g>
					<path id="DejaVuSans-75_1_" class="st2" d="M106.9-78.1V-45h9v-32.8c0-5.2,1-9.1,3-11.7c2-2.6,5.1-3.9,9.1-3.9
						c4.8,0,8.7,1.5,11.5,4.6c2.8,3.1,4.2,7.3,4.2,12.7v31h9v-54.7h-9v8.4c-2.2-3.3-4.7-5.8-7.6-7.4c-2.9-1.6-6.2-2.4-10-2.4
						c-6.3,0-11.1,2-14.3,5.9C108.5-91.4,106.9-85.7,106.9-78.1z M129.5-43.7L129.5-43.7z"/>
				</g>
				<g>
					<path id="DejaVuSans-74_5_" class="st2" d="M180.1-29.5V-45h18.5v-7h-18.5v-29.7c0-4.5,0.6-7.3,1.8-8.6s3.7-1.9,7.5-1.9h9.2
						v-7.5h-9.2c-6.9,0-11.7,1.3-14.4,3.9c-2.6,2.6-4,7.3-4,14.1V-52h-6.6v7h6.6v15.5H180.1z"/>
				</g>
				<g>
					<path id="DejaVuSans-75_2_" class="st2" d="M209.5-78.1V-45h9v-32.8c0-5.2,1-9.1,3-11.7c2-2.6,5.1-3.9,9.1-3.9
						c4.8,0,8.7,1.5,11.5,4.6c2.8,3.1,4.2,7.3,4.2,12.7v31h9v-54.7h-9v8.4c-2.2-3.3-4.7-5.8-7.6-7.4c-2.9-1.6-6.2-2.4-10-2.4
						c-6.3,0-11.1,2-14.3,5.9C211.1-91.4,209.5-85.7,209.5-78.1z M232.1-43.7L232.1-43.7z"/>
				</g>
				<g>
					<path id="DejaVuSans-72_5_" class="st2" d="M305.5-53.4c-1,0.6-2.1,1-3.3,1.3c-1.2,0.3-2.5,0.4-3.9,0.4c-5.1,0-9-1.7-11.7-5
						s-4.1-8-4.1-14.2v-28.8h-9V-45h9v-8.5c1.9,3.3,4.4,5.8,7.4,7.4c3,1.6,6.7,2.4,11,2.4c0.6,0,1.3,0,2-0.1
						c0.8-0.1,1.6-0.2,2.5-0.4L305.5-53.4z"/>
				</g>
				<g>
					<path id="DejaVuSans-65_7_" class="st2" d="M359.4-70.1v-4.4h-41.3c0.4-6.2,2.3-10.9,5.6-14.1c3.3-3.2,8-4.9,13.9-4.9
						c3.4,0,6.8,0.4,10,1.3c3.2,0.8,6.5,2.1,9.7,3.8v-8.5c-3.2-1.4-6.5-2.4-9.9-3.1c-3.4-0.7-6.8-1.1-10.3-1.1
						c-8.7,0-15.6,2.5-20.7,7.6c-5.1,5.1-7.6,12-7.6,20.6c0,8.9,2.4,16,7.2,21.3c4.8,5.3,11.4,7.9,19.6,7.9c7.4,0,13.2-2.4,17.5-7.1
						C357.3-55.6,359.4-62,359.4-70.1z M350.4-67.5c-0.1,4.9-1.4,8.8-4.1,11.8c-2.7,2.9-6.2,4.4-10.7,4.4c-5,0-9-1.4-12-4.2
						c-3-2.8-4.7-6.8-5.2-12L350.4-67.5z"/>
				</g>
				<g>
					<path id="DejaVuSans-56_1_" class="st2" d="M425.2-99.7l-27.8,72.9h10.3l23.1-61.4l23.1,61.4h10.2l-27.8-72.9H425.2z"/>
				</g>
				<g>
					<path id="DejaVuSans-61_4_" class="st2" d="M491.5-72.2c-7.3,0-12.3-0.8-15.1-2.5c-2.8-1.7-4.2-4.5-4.2-8.5
						c0-3.2,1.1-5.7,3.2-7.6c2.1-1.9,5-2.8,8.6-2.8c5,0,9,1.8,12,5.3c3,3.5,4.5,8.2,4.5,14.1v2H491.5z M509.4-68.5v-31.2h-9v8.3
						c-2.1-3.3-4.6-5.8-7.7-7.3s-6.8-2.4-11.2-2.4c-5.6,0-10,1.6-13.4,4.7c-3.3,3.1-5,7.4-5,12.6c0,6.1,2.1,10.8,6.2,13.9
						c4.1,3.1,10.3,4.7,18.4,4.7h12.6v0.9c0,4.1-1.4,7.3-4.1,9.6s-6.5,3.4-11.5,3.4c-3.1,0-6.2-0.4-9.1-1.1c-3-0.8-5.8-1.9-8.5-3.4
						v8.3c3.3,1.3,6.5,2.2,9.6,2.8c3.1,0.6,6.1,1,9,1c7.9,0,13.8-2.1,17.7-6.2C507.4-54,509.4-60.2,509.4-68.5z"/>
				</g>
				<g>
					<path id="DejaVuSans-6c_2_" class="st2" d="M527.9-23.7h9v-76h-9V-23.7z"/>
				</g>
				<g>
					<path id="DejaVuSans-75_3_" class="st2" d="M554.8-78.1V-45h9v-32.8c0-5.2,1-9.1,3-11.7c2-2.6,5.1-3.9,9.1-3.9
						c4.8,0,8.7,1.5,11.5,4.6c2.8,3.1,4.2,7.3,4.2,12.7v31h9v-54.7h-9v8.4c-2.2-3.3-4.7-5.8-7.6-7.4c-2.9-1.6-6.2-2.4-10-2.4
						c-6.3,0-11.1,2-14.3,5.9C556.4-91.4,554.8-85.7,554.8-78.1z M577.4-43.7L577.4-43.7z"/>
				</g>
				<g>
					<path id="DejaVuSans-65_8_" class="st2" d="M665.8-70.1v-4.4h-41.3c0.4-6.2,2.3-10.9,5.6-14.1s8-4.9,13.9-4.9
						c3.4,0,6.8,0.4,10,1.3s6.5,2.1,9.7,3.8v-8.5c-3.2-1.4-6.5-2.4-9.9-3.1s-6.8-1.1-10.3-1.1c-8.7,0-15.6,2.5-20.7,7.6
						c-5.1,5.1-7.6,12-7.6,20.6c0,8.9,2.4,16,7.2,21.3c4.8,5.3,11.4,7.9,19.6,7.9c7.4,0,13.2-2.4,17.5-7.1
						C663.7-55.6,665.8-62,665.8-70.1z M656.9-67.5c-0.1,4.9-1.4,8.8-4.1,11.8c-2.7,2.9-6.2,4.4-10.7,4.4c-5,0-9-1.4-12-4.2
						s-4.7-6.8-5.2-12L656.9-67.5z"/>
				</g>
				<g>
					<path id="DejaVuSans-28_1_" class="st2" d="M734-23.9c-4.4-7.5-7.6-14.9-9.7-22.2c-2.1-7.3-3.2-14.7-3.2-22.3
						c0-7.5,1.1-15,3.2-22.3s5.4-14.8,9.7-22.2h-7.8c-4.9,7.7-8.5,15.2-11,22.6s-3.6,14.7-3.6,22c0,7.3,1.2,14.6,3.6,21.9
						c2.4,7.4,6.1,14.9,11,22.6H734z"/>
				</g>
				<g>
					<path id="DejaVuSans-31_5_" class="st2" d="M754.4-91.4h16.1v55.6l-17.5-3.5v9l17.4,3.5h9.9v-64.6h16.1v-8.3h-42V-91.4z"/>
				</g>
				<g>
					<path id="DejaVuSans-32_3_" class="st2" d="M824.8-91.4h34.4v-8.3h-46.3v8.3c3.7,3.9,8.8,9.1,15.3,15.6
						c6.5,6.5,10.5,10.7,12.2,12.6c3.2,3.5,5.4,6.5,6.6,9c1.3,2.5,1.9,4.9,1.9,7.2c0,3.9-1.4,7-4.1,9.5c-2.7,2.4-6.3,3.7-10.6,3.7
						c-3.1,0-6.4-0.5-9.8-1.6c-3.4-1.1-7.1-2.7-11-4.9v10c4,1.6,7.7,2.8,11.1,3.6c3.5,0.8,6.6,1.2,9.5,1.2c7.6,0,13.6-1.9,18.1-5.7
						c4.5-3.8,6.7-8.8,6.7-15.1c0-3-0.6-5.8-1.7-8.5c-1.1-2.7-3.2-5.8-6.1-9.5c-0.8-0.9-3.4-3.7-7.8-8.2
						C838.9-77,832.7-83.3,824.8-91.4z"/>
				</g>
				<g>
					<path id="DejaVuSans-25_1_" class="st2" d="M941.9-67.6c-2.8,0-5.1-1.2-6.7-3.6c-1.6-2.4-2.4-5.8-2.4-10.1
						c0-4.2,0.8-7.6,2.4-10c1.6-2.4,3.8-3.6,6.7-3.6c2.8,0,5,1.2,6.6,3.6c1.6,2.4,2.4,5.8,2.4,10c0,4.3-0.8,7.6-2.4,10
						C946.9-68.9,944.7-67.6,941.9-67.6z M941.9-61.4c5.1,0,9.2-1.8,12.2-5.4c3-3.6,4.5-8.4,4.5-14.5c0-6.1-1.5-10.9-4.6-14.5
						c-3-3.6-7.1-5.3-12.2-5.3c-5.2,0-9.3,1.8-12.4,5.3c-3,3.6-4.5,8.4-4.5,14.5c0,6.1,1.5,11,4.6,14.5S936.7-61.4,941.9-61.4z
						 M891.5-31.7c-2.8,0-5-1.2-6.6-3.6c-1.6-2.4-2.4-5.7-2.4-10c0-4.3,0.8-7.6,2.4-10.1c1.6-2.4,3.8-3.6,6.6-3.6s5.1,1.2,6.7,3.6
						c1.6,2.4,2.4,5.8,2.4,10.1c0,4.2-0.8,7.5-2.4,10C896.5-32.9,894.3-31.7,891.5-31.7z M935.6-25.5h7.8l-45.6-75.6H890L935.6-25.5
						z M891.5-25.5c5.1,0,9.2-1.8,12.3-5.3c3.1-3.6,4.6-8.4,4.6-14.5c0-6.1-1.5-11-4.6-14.5s-7.2-5.3-12.3-5.3s-9.3,1.8-12.3,5.3
						c-3,3.6-4.5,8.4-4.5,14.5c0,6.1,1.5,10.9,4.5,14.5C882.3-27.3,886.4-25.5,891.5-25.5z"/>
				</g>
				<g>
					<path id="DejaVuSans-43_1_" class="st2" d="M1060.4-32.4v-10.4c-3.3,3.1-6.9,5.4-10.6,6.9c-3.8,1.5-7.8,2.3-12,2.3
						c-8.3,0-14.7-2.5-19.1-7.6s-6.6-12.5-6.6-22.1c0-9.6,2.2-17,6.6-22s10.8-7.6,19.1-7.6c4.2,0,8.2,0.8,12,2.3
						c3.8,1.5,7.3,3.8,10.6,6.9v-10.3c-3.4-2.3-7.1-4.1-11-5.3c-3.9-1.2-7.9-1.8-12.2-1.8c-11,0-19.7,3.4-26.1,10.1
						c-6.3,6.8-9.5,16-9.5,27.7c0,11.7,3.2,21,9.5,27.7c6.4,6.8,15.1,10.1,26.1,10.1c4.4,0,8.5-0.6,12.3-1.7
						C1053.4-28.4,1057-30.1,1060.4-32.4z"/>
				</g>
				<g>
					<path id="DejaVuSans-41_1_" class="st2" d="M1100-36.5l-13.4-36.3h26.8L1100-36.5z M1094.5-26.8h11.2l27.8-72.9h-10.2
						l-6.6,18.7h-32.9l-6.6-18.7h-10.4L1094.5-26.8z"/>
				</g>
				<g>
					<path id="DejaVuSans-47_2_" class="st2" d="M1192-89.3v19.6h-16.1v8.1h25.9v-31.3c-3.8-2.7-8-4.7-12.6-6.1
						c-4.6-1.4-9.5-2.1-14.7-2.1c-11.4,0-20.3,3.3-26.8,10c-6.4,6.7-9.6,15.9-9.6,27.8c0,11.9,3.2,21.2,9.6,27.9
						c6.4,6.7,15.4,10,26.8,10c4.8,0,9.3-0.6,13.5-1.8c4.3-1.2,8.2-2.9,11.8-5.2v-10.5c-3.6,3.1-7.5,5.4-11.6,7
						c-4.1,1.6-8.4,2.3-12.9,2.3c-8.9,0-15.6-2.5-20.1-7.5c-4.5-5-6.7-12.4-6.7-22.3c0-9.8,2.2-17.2,6.7-22.2
						c4.5-5,11.2-7.5,20.1-7.5c3.5,0,6.6,0.3,9.3,0.9C1187.4-91.5,1189.8-90.6,1192-89.3z"/>
				</g>
				<g>
					<path id="DejaVuSans-52_1_" class="st2" d="M1254.4-65.5c2.1-0.7,4.2-2.2,6.2-4.6s4-5.6,6-9.7l10-19.9H1266l-9.3,18.7
						c-2.4,4.9-4.8,8.1-7,9.7c-2.3,1.6-5.3,2.4-9.2,2.4h-10.8v-30.8h-9.9v72.9h22.3c8.3,0,14.6-1.7,18.7-5.2
						c4.1-3.5,6.2-8.7,6.2-15.8c0-4.6-1.1-8.4-3.2-11.4C1261.5-62.3,1258.4-64.4,1254.4-65.5z M1229.7-34.9v-25.9h12.4
						c4.8,0,8.3,1.1,10.8,3.3c2.4,2.2,3.6,5.4,3.6,9.7s-1.2,7.5-3.6,9.6c-2.4,2.2-6,3.2-10.8,3.2H1229.7z"/>
				</g>
				<g>
					<path id="DejaVuSans-29_1_" class="st2" d="M1287.5-23.9h7.8c4.9-7.7,8.5-15.2,11-22.6c2.4-7.4,3.6-14.7,3.6-21.9
						c0-7.3-1.2-14.6-3.6-22c-2.4-7.4-6.1-14.9-11-22.6h-7.8c4.3,7.5,7.6,14.9,9.7,22.2c2.1,7.4,3.2,14.8,3.2,22.3
						c0,7.5-1.1,14.9-3.2,22.3C1295-38.7,1291.8-31.3,1287.5-23.9z"/>
				</g>
			</g>
		</g>
	</g>
	<path class="st12" d="M77.9,372.8c0,0,265.1-74.7,495.3-263.1c20.4-16.7,41.9-34.2,61.5-52.7l0.1,153.5
		C634.8,210.5,175.6,345.6,77.9,372.8z"/>
</g>
</svg>
