<svg width="40" height="40" viewBox="0 0 40 40" fill="none" xmlns="http://www.w3.org/2000/svg">
<path d="M22.9905 9.112C22.0214 8.84637 21.0152 8.71168 20 8.71168C13.7755 8.71168 8.71164 13.7756 8.71164 20C8.71164 26.2245 13.7755 31.2884 20 31.2884C26.2245 31.2884 31.2884 26.2245 31.2884 20C31.2884 18.9848 31.1537 17.9786 30.888 17.0095C30.7055 16.3437 31.0973 15.6561 31.7631 15.4736C32.4285 15.2911 33.1166 15.6829 33.2991 16.3486C33.6237 17.5331 33.7884 18.7616 33.7884 20C33.7884 27.6029 27.6029 33.7884 20 33.7884C12.3971 33.7884 6.21164 27.6029 6.21164 20C6.21164 12.3972 12.3971 6.21168 20 6.21168C21.2385 6.21168 22.467 6.37629 23.6514 6.70098C24.2066 6.85317 24.5713 7.35676 24.5712 7.90598C24.5712 8.01528 24.5567 8.12637 24.5265 8.23692C24.3441 8.9027 23.6565 9.29473 22.9905 9.112ZM37.6264 13.4719C36.9645 13.6679 36.5866 14.3633 36.7827 15.0254C37.2587 16.6332 37.5 18.3068 37.5 20C37.5 29.6496 29.6495 37.5 20 37.5C10.3505 37.5 2.5 29.6496 2.5 20C2.5 10.3505 10.3505 2.50004 20 2.50004C21.6933 2.50004 23.367 2.74137 24.9745 3.21731C25.6365 3.4134 26.3319 3.03543 26.5279 2.37356C26.5629 2.2552 26.5796 2.1359 26.5796 2.01848C26.5798 1.47903 26.2278 0.981138 25.6841 0.820122C23.846 0.275903 21.9337 4.37862e-05 20 4.37862e-05C14.6578 4.37862e-05 9.63531 2.08043 5.85781 5.85786C2.08039 9.63543 0 14.6579 0 20C0 25.3422 2.08039 30.3647 5.85781 34.1422C9.63523 37.9197 14.6578 40 20 40C25.3422 40 30.3646 37.9197 34.1422 34.1422C37.9196 30.3647 40 25.3422 40 20C40 18.0665 39.7241 16.154 39.1798 14.3157C38.9839 13.6537 38.2883 13.2762 37.6264 13.4719ZM20 15C20.1838 15 20.3695 15.0102 20.5518 15.0302C21.2384 15.1057 21.8555 14.6102 21.9306 13.924C22.0059 13.2378 21.5107 12.6204 20.8245 12.5452C20.5518 12.5152 20.2745 12.5 20 12.5C15.8645 12.5 12.5 15.8645 12.5 20C12.5 24.1356 15.8645 27.5 20 27.5C24.1355 27.5 27.5 24.1356 27.5 20C27.5 19.3097 26.9404 18.75 26.25 18.75C25.5596 18.75 25 19.3097 25 20C25 22.7571 22.757 25 20 25C17.243 25 15 22.7571 15 20C15 17.243 17.243 15 20 15ZM26.3823 11.8501L27.005 5.60426C27.0336 5.31692 27.1608 5.04848 27.3649 4.84434L31.8433 0.366138C32.1883 0.0212156 32.7022 -0.0915187 33.1599 0.0773094C33.6175 0.246138 33.9352 0.665825 33.9734 1.15215L34.3284 5.67168L38.8479 6.02668C39.3342 6.06489 39.7539 6.38254 39.9227 6.84012C40.0916 7.29778 39.9788 7.81184 39.6339 8.15676L35.1556 12.635C34.9516 12.8391 34.683 12.9663 34.3958 12.9949L28.1501 13.6179L20.8839 20.8839C20.6398 21.128 20.3199 21.25 20 21.25C19.68 21.25 19.3602 21.128 19.1162 20.8839C18.628 20.3957 18.628 19.6043 19.1162 19.1161L26.3823 11.8501ZM28.9772 11.023L33.7034 10.5516L35.9484 8.30668L33.068 8.08043C32.4549 8.03223 31.968 7.5452 31.9198 6.93215L31.6935 4.05161L29.4484 6.29661L28.9772 11.023Z" fill="#044484"/>
</svg>
