<svg width="40" height="40" viewBox="0 0 40 40" fill="none" xmlns="http://www.w3.org/2000/svg">
<path d="M38.2862 32.802C38.2229 32.4814 38.0694 32.1827 37.8509 31.9402L28.5254 21.5919C27.773 20.7571 26.4196 20.7638 25.6755 21.6062L21.5137 26.3182V2.74063C21.5137 1.22945 20.2843 0 18.7732 0H4.42097C2.90979 0 1.68042 1.22945 1.68042 2.74063V3.04656C1.68042 3.47805 2.03026 3.82781 2.46167 3.82781C2.89308 3.82781 3.24292 3.47805 3.24292 3.04656V2.74063C3.24292 2.09102 3.77144 1.5625 4.42097 1.5625H8.27042L9.54636 3.55461C9.95854 4.1982 10.6371 4.5825 11.3612 4.5825C12.0853 4.5825 12.7638 4.19828 13.176 3.55461L14.4521 1.5625H18.7731C19.4226 1.5625 19.9511 2.09102 19.9511 2.74063V28.0873L16.5361 31.9537C16.1765 32.3607 16.0243 32.8834 16.0978 33.3973H4.42097C3.77144 33.3973 3.24292 32.8692 3.24292 32.2201V9.89437C3.24292 9.46289 2.89308 9.11312 2.46167 9.11312C2.03026 9.11312 1.68042 9.46289 1.68042 9.89437V32.22C1.68042 33.7307 2.90979 34.9598 4.42097 34.9598H19.9514V39.2188C19.9514 39.6502 20.3012 40 20.7326 40H26.8516C27.2895 40 27.6505 39.6237 27.6321 39.1859C27.6114 38.7188 27.1877 38.3595 26.7209 38.4375H21.5139V34.1785C21.5139 33.747 21.164 33.3973 20.7326 33.3973H17.8917C17.682 33.3973 17.5678 33.1459 17.7072 32.988L26.8465 22.6406C26.9824 22.4869 27.2274 22.4855 27.3648 22.638L36.6902 32.9863C36.8318 33.1434 36.7181 33.3973 36.5072 33.3973H33.774C33.3426 33.3973 32.9928 33.7471 32.9928 34.1786V39.2188C32.9928 39.6502 33.3426 40 33.774 40C34.2054 40 34.5553 39.6502 34.5553 39.2188V34.9598H36.5072C37.6264 34.9598 38.5042 33.907 38.2862 32.802ZM11.8603 2.7118C11.7331 2.91047 11.5559 3.01992 11.3613 3.01992C11.1667 3.01992 10.9894 2.91055 10.8621 2.7118L10.1261 1.56273H12.5963L11.8603 2.7118Z" fill="#044484"/>
<path d="M10.4279 11.5644C8.56882 12.5772 6.92053 12.921 6.88311 12.9287C6.46014 13.0131 6.18553 13.4241 6.26968 13.8472C6.35264 14.2647 6.77061 14.5441 7.18827 14.4611C7.26366 14.4461 9.05788 14.0813 11.1306 12.9607C13.308 11.7837 14.9813 10.2034 16.0491 8.33251L16.3422 8.98305C16.517 9.3711 16.9869 9.54938 17.3754 9.37438C17.7688 9.19711 17.944 8.73454 17.7668 8.34118L16.771 6.13102C16.6237 5.80329 16.2584 5.6161 15.9067 5.68563L13.7169 6.12024C13.2937 6.20422 13.0187 6.6154 13.1027 7.0386C13.1867 7.46188 13.5988 7.73688 14.0211 7.65282L14.7208 7.51399C13.8098 9.14665 12.3717 10.5054 10.4279 11.5644Z" fill="#044484"/>
<path d="M5.47998 21.399C5.47998 21.8305 5.82982 22.1803 6.26123 22.1803H16.9765C17.4079 22.1803 17.7578 21.8305 17.7578 21.399C17.7578 20.9675 17.4079 20.6178 16.9765 20.6178H15.9681V13.4483C15.9681 13.0168 15.6183 12.6671 15.1869 12.6671C14.7555 12.6671 14.4056 13.0168 14.4056 13.4483V20.6178H12.3223V15.723C12.3223 15.2915 11.9725 14.9417 11.5411 14.9417C11.1097 14.9417 10.7598 15.2915 10.7598 15.723V20.6178H8.78514V16.9529C8.78514 16.5214 8.43529 16.1717 8.00389 16.1717C7.57248 16.1717 7.22264 16.5214 7.22264 16.9529V20.6178H6.26123C5.82975 20.6178 5.47998 20.9675 5.47998 21.399Z" fill="#044484"/>
<path d="M2.67063 7.11603C2.99883 7.0247 3.23422 6.72338 3.24329 6.38252C3.2618 5.68674 2.37946 5.31845 1.89758 5.8233C1.64633 6.08658 1.6136 6.49416 1.81251 6.79767C1.99719 7.0751 2.35024 7.20525 2.67063 7.11603Z" fill="#044484"/>
<path d="M7.50075 29.6101H15.6325C17.1018 29.6101 18.2972 28.4147 18.2972 26.9453C18.2972 25.476 17.1018 24.2806 15.6325 24.2806H7.50075C6.03137 24.2806 4.83606 25.476 4.83606 26.9453C4.83606 28.4146 6.03137 29.6101 7.50075 29.6101ZM7.50075 25.8431H15.6325C16.2403 25.8431 16.7347 26.3376 16.7347 26.9453C16.7347 27.5531 16.2403 28.0476 15.6325 28.0476H7.50075C6.89301 28.0476 6.39856 27.5531 6.39856 26.9453C6.39856 26.3376 6.89301 25.8431 7.50075 25.8431Z" fill="#044484"/>
<path d="M30.7899 38.5695C30.2002 38.1766 29.4146 38.7459 29.6043 39.4269C29.6937 39.748 29.9846 39.9817 30.3181 39.999C30.65 40.0162 30.9666 39.8093 31.0849 39.4994C31.2127 39.1643 31.0923 38.7675 30.7899 38.5695Z" fill="#044484"/>
<path d="M29.4917 29.6792H29.1265C29.0521 29.4573 28.9479 29.2475 28.8168 29.0558H29.4917C29.6265 29.0558 29.7558 29.0004 29.8511 28.9016C29.9465 28.8029 30 28.669 30 28.5293C30 28.3897 29.9465 28.2558 29.8511 28.157C29.7558 28.0583 29.6265 28.0028 29.4917 28.0028H26.908C26.8894 28.0028 26.8714 28 26.8525 28H25.5083C25.3735 28 25.2442 28.0555 25.1489 28.1542C25.0535 28.253 25 28.3869 25 28.5265C25 28.6662 25.0535 28.8001 25.1489 28.8988C25.2442 28.9976 25.3735 29.053 25.5083 29.053H26.8525C27.0783 29.053 27.3007 29.1101 27.5004 29.2192C27.7002 29.3283 27.8712 29.4862 27.9988 29.6792H25.5293C25.3945 29.6792 25.2652 29.7347 25.1699 29.8334C25.0746 29.9322 25.021 30.0661 25.021 30.2057C25.021 30.3454 25.0746 30.4793 25.1699 30.578C25.2652 30.6768 25.3945 30.7323 25.5293 30.7323H28.2214C28.1675 31.0683 28.0004 31.3736 27.7498 31.5942C27.4992 31.8147 27.1813 31.9361 26.8525 31.9369H25.5083C25.4089 31.937 25.3117 31.9672 25.2288 32.0238C25.1458 32.0804 25.0807 32.161 25.0415 32.2556C25.0023 32.3501 24.9906 32.4545 25.0081 32.5558C25.0255 32.6572 25.0712 32.751 25.1396 32.8257L27.8876 35.8268C27.9331 35.8788 27.9881 35.9209 28.0495 35.9506C28.1109 35.9803 28.1774 35.9969 28.2451 35.9996C28.3128 36.0023 28.3804 35.9909 28.4437 35.9662C28.5071 35.9414 28.5651 35.9038 28.6143 35.8555C28.6634 35.8072 28.7028 35.7492 28.73 35.6849C28.7572 35.6207 28.7717 35.5514 28.7727 35.4812C28.7737 35.4111 28.7611 35.3414 28.7358 35.2763C28.7104 35.2112 28.6727 35.1521 28.625 35.1023L26.6908 32.9899H26.8525C27.4513 32.9892 28.0285 32.7576 28.4716 32.3403C28.9148 31.9229 29.1922 31.3497 29.2498 30.7323H29.4917C29.6265 30.7323 29.7558 30.6768 29.8511 30.578C29.9465 30.4793 30 30.3454 30 30.2057C30 30.0661 29.9465 29.9322 29.8511 29.8334C29.7558 29.7347 29.6265 29.6792 29.4917 29.6792Z" fill="#044484"/>
</svg>
