<svg width="40" height="40" viewBox="0 0 40 40" fill="none" xmlns="http://www.w3.org/2000/svg">
<g clip-path="url(#clip0_934_12)">
<path d="M20 0C8.972 0 0 8.97267 0 20.0007C0 31.0287 8.972 40.0007 20 40.0007C31.028 40.0007 40 31.0287 40 20.0007C40 8.97267 31.028 0 20 0ZM38.65 19.3333H20.6667V1.35067C30.43 1.696 38.3047 9.57 38.65 19.3333ZM8.276 20.6667H12.3907L3.80067 29.2567C3.28933 28.366 2.84667 27.4313 2.486 26.4567L8.276 20.6667ZM2.02733 25.03C1.636 23.634 1.40333 22.1733 1.35 20.6667H6.39067L2.02733 25.03ZM14.276 20.6667H18.3907L6.34667 32.7107C5.68133 31.9967 5.06867 31.2333 4.52067 30.422L14.276 20.6667ZM19.3333 21.6093V25.724L9.578 35.4793C8.76667 34.9313 8.00333 34.3187 7.28933 33.6533L19.3333 21.6093ZM19.3333 27.6093V31.724L13.5433 37.514C12.5687 37.1533 11.634 36.71 10.7433 36.1993L19.3333 27.6093ZM19.3333 33.6093V38.65C17.8267 38.5967 16.366 38.364 14.97 37.9727L19.3333 33.6093ZM19.3333 1.35V19.3333H1.35067C1.69533 9.57067 9.57067 1.69533 19.3333 1.35ZM20.6667 38.6493V20.666H38.65C38.3047 30.4293 30.43 38.304 20.6667 38.6493Z" fill="#044484"/>
<path d="M4.66671 18.0007H6.00004C6.73537 18.0007 7.33337 17.4027 7.33337 16.6673V14.6673C7.33337 13.932 6.73537 13.334 6.00004 13.334H4.66671C3.93137 13.334 3.33337 13.932 3.33337 14.6673V16.6673C3.33337 17.4027 3.93137 18.0007 4.66671 18.0007ZM4.66671 14.6673H6.00004L6.00137 16.6673H4.66671V14.6673Z" fill="#044484"/>
<path d="M9.99996 18.0007H11.3333C12.0686 18.0007 12.6666 17.4027 12.6666 16.6673V11.334C12.6666 10.5987 12.0686 10.0007 11.3333 10.0007H9.99996C9.26463 10.0007 8.66663 10.5987 8.66663 11.334V16.6673C8.66663 17.4027 9.26463 18.0007 9.99996 18.0007ZM9.99996 11.334H11.3333L11.3346 16.6673H9.99996V11.334Z" fill="#044484"/>
<path d="M15.3333 18.0007H16.6667C17.402 18.0007 18 17.4027 18 16.6673V7.334C18 6.59867 17.402 6.00067 16.6667 6.00067H15.3333C14.598 6.00067 14 6.59867 14 7.334V16.6673C14 17.4027 14.598 18.0007 15.3333 18.0007ZM15.3333 7.334H16.6667L16.668 16.6673H15.3333V7.334Z" fill="#044484"/>
<path d="M22.1954 17.1387C22.3254 17.2687 22.496 17.334 22.6667 17.334C22.8374 17.334 23.008 17.2687 23.138 17.1387L26.6667 13.61L28.862 15.8053C29.1227 16.066 29.544 16.066 29.8047 15.8053L33.3334 12.2767V14.0007C33.3334 14.3693 33.6314 14.6673 34 14.6673C34.3687 14.6673 34.6667 14.3693 34.6667 14.0007V10.6673C34.6667 10.2987 34.3687 10.0007 34 10.0007H30.6667C30.298 10.0007 30 10.2987 30 10.6673C30 11.036 30.298 11.334 30.6667 11.334H32.3907L29.3334 14.3913L27.138 12.196C26.8774 11.9353 26.456 11.9353 26.1954 12.196L22.1954 16.196C21.9347 16.4567 21.9347 16.878 22.1954 17.1387Z" fill="#044484"/>
<path d="M30.6147 25.0928H30.1581C30.0652 24.8328 29.9348 24.5869 29.7709 24.3623H30.6147C30.7832 24.3623 30.9448 24.2973 31.0639 24.1816C31.1831 24.0659 31.25 23.9089 31.25 23.7453C31.25 23.5817 31.1831 23.4247 31.0639 23.309C30.9448 23.1933 30.7832 23.1283 30.6147 23.1283H27.385C27.3618 23.1283 27.3393 23.125 27.3156 23.125H25.6353C25.4668 23.125 25.3052 23.19 25.1861 23.3057C25.0669 23.4214 25 23.5784 25 23.742C25 23.9056 25.0669 24.0626 25.1861 24.1783C25.3052 24.294 25.4668 24.359 25.6353 24.359H27.3156C27.5978 24.359 27.8759 24.4259 28.1255 24.5537C28.3752 24.6816 28.589 24.8666 28.7485 25.0928H25.6616C25.4931 25.0928 25.3315 25.1578 25.2123 25.2736C25.0932 25.3893 25.0263 25.5462 25.0263 25.7098C25.0263 25.8735 25.0932 26.0304 25.2123 26.1461C25.3315 26.2619 25.4931 26.3269 25.6616 26.3269H29.0268C28.9594 26.7206 28.7505 27.0785 28.4373 27.3369C28.124 27.5953 27.7266 27.7376 27.3156 27.7386H25.6353C25.5111 27.7386 25.3897 27.774 25.286 27.8404C25.1823 27.9067 25.1009 28.0012 25.0518 28.112C25.0028 28.2228 24.9883 28.3451 25.0101 28.4639C25.0319 28.5826 25.0891 28.6925 25.1745 28.7801L28.6095 32.297C28.6664 32.358 28.7352 32.4073 28.8119 32.4421C28.8887 32.4769 28.9718 32.4964 29.0564 32.4996C29.141 32.5027 29.2254 32.4894 29.3047 32.4604C29.3839 32.4313 29.4564 32.3872 29.5178 32.3307C29.5793 32.2741 29.6285 32.2061 29.6625 32.1308C29.6965 32.0555 29.7146 31.9743 29.7159 31.8921C29.7171 31.8098 29.7014 31.7282 29.6697 31.6519C29.638 31.5757 29.5909 31.5063 29.5312 31.448L27.1135 28.9726H27.3156C28.0642 28.9717 28.7856 28.7003 29.3396 28.2112C29.8935 27.7222 30.2402 27.0505 30.3122 26.3269H30.6147C30.7832 26.3269 30.9448 26.2619 31.0639 26.1461C31.1831 26.0304 31.25 25.8735 31.25 25.7098C31.25 25.5462 31.1831 25.3893 31.0639 25.2736C30.9448 25.1578 30.7832 25.0928 30.6147 25.0928Z" fill="#044484"/>
</g>
<defs>
<clipPath id="clip0_934_12">
<rect width="40" height="40" fill="white"/>
</clipPath>
</defs>
</svg>
