<svg width="40" height="40" viewBox="0 0 40 40" fill="none" xmlns="http://www.w3.org/2000/svg">
<g clip-path="url(#clip0_934_19)">
<path d="M16.3934 32.7869C20.0624 32.7895 23.6251 31.5546 26.5055 29.282L28.8662 31.6427C28.9023 32.2771 29.1699 32.8763 29.6183 33.3266L34.8642 38.5725C35.5228 39.2543 36.498 39.5278 37.4151 39.2878C38.3321 39.0477 39.0483 38.3315 39.2884 37.4145C39.5284 36.4974 39.2549 35.5222 38.5731 34.8636L33.3272 29.6177C32.8805 29.1855 32.2928 28.9292 31.6721 28.8958L29.2819 26.5056C33.9875 20.4977 33.9219 12.0366 29.1239 6.10237C24.3258 0.168114 16.066 -1.66762 9.206 1.67564C2.34602 5.01891 -1.29728 12.6557 0.420481 20.0912C2.13824 27.5266 8.76211 32.7915 16.3934 32.7869ZM37.6485 35.7941C38.1605 36.3063 38.1605 37.1364 37.6485 37.6486C37.1297 38.1442 36.3129 38.1442 35.7941 37.6486L30.5482 32.4027C30.2072 32.0734 30.0705 31.5858 30.1905 31.1272C30.3106 30.6687 30.6686 30.3106 31.1272 30.1906C31.5857 30.0706 32.0733 30.2073 32.4026 30.5482L37.6485 35.7941ZM30.1521 29.2302C29.9581 29.3368 29.7795 29.4691 29.621 29.6236C29.4682 29.7812 29.336 29.9575 29.2275 30.1482L27.5082 28.4302C27.8273 28.1351 28.1346 27.8278 28.4301 27.5082L30.1521 29.2302ZM16.3934 1.3115C24.723 1.3115 31.4754 8.06393 31.4754 16.3935C31.4754 24.723 24.723 31.4754 16.3934 31.4754C8.06387 31.4754 1.31145 24.723 1.31145 16.3935C1.32084 8.06783 8.06777 1.3209 16.3934 1.3115Z" fill="#044484"/>
<path d="M16.3934 30.164C23.9986 30.164 30.1639 23.9987 30.1639 16.3935C30.1639 8.78824 23.9986 2.62299 16.3934 2.62299C8.78818 2.62299 2.62292 8.78824 2.62292 16.3935C2.6316 23.9951 8.79178 30.1553 16.3934 30.164ZM16.3934 3.93446C23.2743 3.93446 28.8524 9.51255 28.8524 16.3935C28.8524 23.2744 23.2743 28.8525 16.3934 28.8525C9.51249 28.8525 3.9344 23.2744 3.9344 16.3935C3.94199 9.5157 9.51564 3.94205 16.3934 3.93446Z" fill="#044484"/>
<path fill-rule="evenodd" clip-rule="evenodd" d="M9.83601 22.9509H23.6065C23.9687 22.9509 24.2622 22.6573 24.2622 22.2951C24.2622 21.933 23.9687 21.6394 23.6065 21.6394H9.83601V10.4919C9.83601 10.1297 9.54243 9.83612 9.18027 9.83612C8.81812 9.83612 8.52454 10.1297 8.52454 10.4919V21.6394C8.52454 22.3637 9.1117 22.9509 9.83601 22.9509Z" fill="#044484"/>
<path fill-rule="evenodd" clip-rule="evenodd" d="M11.8032 20.3279C12.1654 20.3279 12.4589 20.0343 12.4589 19.6722V17.0492C12.4589 16.6871 12.1654 16.3935 11.8032 16.3935C11.441 16.3935 11.1475 16.6871 11.1475 17.0492V19.6722C11.1475 20.0343 11.441 20.3279 11.8032 20.3279Z" fill="#044484"/>
<path fill-rule="evenodd" clip-rule="evenodd" d="M13.7705 15.7377V18.3607C13.7705 18.7228 14.0641 19.0164 14.4262 19.0164C14.7884 19.0164 15.082 18.7228 15.082 18.3607V15.7377C15.082 15.3756 14.7884 15.082 14.4262 15.082C14.0641 15.082 13.7705 15.3756 13.7705 15.7377Z" fill="#044484"/>
<path fill-rule="evenodd" clip-rule="evenodd" d="M16.3933 17.0492V19.6722C16.3933 20.0343 16.6869 20.3279 17.049 20.3279C17.4112 20.3279 17.7048 20.0343 17.7048 19.6722V17.0492C17.7048 16.6871 17.4112 16.3935 17.049 16.3935C16.6869 16.3935 16.3933 16.6871 16.3933 17.0492Z" fill="#044484"/>
<path fill-rule="evenodd" clip-rule="evenodd" d="M19.0164 15.7377V18.3607C19.0164 18.7228 19.3099 19.0164 19.6721 19.0164C20.0342 19.0164 20.3278 18.7228 20.3278 18.3607V15.7377C20.3278 15.3756 20.0342 15.082 19.6721 15.082C19.3099 15.082 19.0164 15.3756 19.0164 15.7377Z" fill="#044484"/>
<path fill-rule="evenodd" clip-rule="evenodd" d="M21.6394 17.0492V19.6722C21.6394 20.0343 21.933 20.3279 22.2951 20.3279C22.6573 20.3279 22.9509 20.0343 22.9509 19.6722V17.0492C22.9509 16.6871 22.6573 16.3935 22.2951 16.3935C21.933 16.3935 21.6394 16.6871 21.6394 17.0492Z" fill="#044484"/>
<path fill-rule="evenodd" clip-rule="evenodd" d="M11.8032 15.082C11.9452 15.0823 12.0833 15.0363 12.1967 14.9509L14.4262 13.2787L16.3318 14.7076C16.7284 15.0072 17.261 15.0553 17.7049 14.8315L19.6721 13.8479L21.579 14.8014C22.084 15.0539 22.6939 14.9548 23.0931 14.5555L24.0701 13.5784C24.3186 13.3211 24.3151 12.9121 24.0621 12.6592C23.8092 12.4062 23.4002 12.4027 23.1429 12.6512L22.1659 13.6282L20.2623 12.6748C19.8925 12.4912 19.4582 12.4912 19.0885 12.6748L17.1213 13.6584L15.2131 12.2302C14.7461 11.8827 14.1063 11.8827 13.6393 12.2302L11.4098 13.9017C11.184 14.071 11.0919 14.3659 11.1812 14.6336C11.2704 14.9014 11.521 15.082 11.8032 15.082Z" fill="#044484"/>
</g>
<defs>
<clipPath id="clip0_934_19">
<rect width="40" height="40" fill="white"/>
</clipPath>
</defs>
</svg>
