<svg width="512" height="512" viewBox="0 0 512 512" fill="none" xmlns="http://www.w3.org/2000/svg">
<g clip-path="url(#clip0_4235_8)">
<mask id="mask0_4235_8" style="mask-type:luminance" maskUnits="userSpaceOnUse" x="0" y="0" width="512" height="512">
<path d="M512 0H0V512H512V0Z" fill="white"/>
</mask>
<g mask="url(#mask0_4235_8)">
<path d="M374.645 14H78C53.187 14 33 34.187 33 59V481C33 505.813 53.187 526 78 526H374.645C399.458 526 419.645 505.813 419.645 481V59C419.645 34.187 399.457 14 374.645 14ZM94.093 102.35C94.093 95.75 99.493 90.35 106.093 90.35H350.566C357.166 90.35 362.566 95.75 362.566 102.35V148.099C362.567 154.699 357.167 160.099 350.567 160.099H106.093C99.493 160.099 94.093 154.699 94.093 148.099V102.35ZM240.35 266.395H212.297C204.012 266.395 197.297 259.679 197.297 251.395V231.012C197.297 222.728 204.013 216.012 212.297 216.012H240.35C248.634 216.012 255.35 222.728 255.35 231.012V251.395C255.35 259.679 248.634 266.395 240.35 266.395ZM255.35 327.634V348.017C255.35 356.301 248.634 363.017 240.35 363.017H212.297C204.013 363.017 197.297 356.301 197.297 348.017V327.634C197.297 319.349 204.012 312.634 212.297 312.634H240.35C248.634 312.634 255.35 319.35 255.35 327.634ZM148.13 444.639C148.13 452.923 141.414 459.639 133.13 459.639H105.077C96.793 459.639 90.077 452.923 90.077 444.639V424.256C90.077 415.972 96.793 409.256 105.077 409.256H133.13C141.414 409.256 148.13 415.971 148.13 424.256V444.639ZM148.13 348.017C148.13 356.301 141.414 363.017 133.13 363.017H105.077C96.793 363.017 90.077 356.301 90.077 348.017V327.634C90.077 319.35 96.793 312.634 105.077 312.634H133.13C141.414 312.634 148.13 319.35 148.13 327.634V348.017ZM148.13 251.395C148.13 259.679 141.414 266.395 133.13 266.395H105.077C96.793 266.395 90.077 259.679 90.077 251.395V231.012C90.077 222.728 96.793 216.012 105.077 216.012H133.13C141.414 216.012 148.13 222.728 148.13 231.012V251.395ZM362.567 444.639C362.567 452.923 355.851 459.639 347.567 459.639H212.296C204.012 459.639 197.296 452.923 197.296 444.639V424.256C197.296 415.971 204.011 409.256 212.296 409.256H347.567C355.851 409.256 362.567 415.972 362.567 424.256V444.639ZM362.567 348.017C362.567 356.301 355.851 363.017 347.567 363.017H319.514C311.23 363.017 304.514 356.301 304.514 348.017V327.634C304.514 319.35 311.23 312.634 319.514 312.634H347.567C355.851 312.634 362.567 319.35 362.567 327.634V348.017ZM362.567 251.395C362.567 259.679 355.851 266.395 347.567 266.395H319.514C311.23 266.395 304.514 259.679 304.514 251.395V231.012C304.514 222.728 311.23 216.012 319.514 216.012H347.567C355.851 216.012 362.567 222.728 362.567 231.012V251.395Z" fill="#044484"/>
</g>
</g>
<defs>
<clipPath id="clip0_4235_8">
<rect width="512" height="512" fill="white"/>
</clipPath>
</defs>
</svg>
