<svg width="100" height="100" viewBox="0 0 100 100" fill="none" xmlns="http://www.w3.org/2000/svg">
<g clip-path="url(#clip0_4235_14)">
<mask id="mask0_4235_14" style="mask-type:luminance" maskUnits="userSpaceOnUse" x="0" y="0" width="100" height="100">
<path d="M100 0H0V100H100V0Z" fill="white"/>
</mask>
<g mask="url(#mask0_4235_14)">
<path fill-rule="evenodd" clip-rule="evenodd" d="M82.4264 46.142C88.0871 52.4148 92.3072 57.8572 95.0865 62.7369C105.265 80.6082 90.7854 98.7596 71.3941 98.4328C52.0029 98.7596 37.5236 80.6082 47.7018 62.7369C50.4811 57.8572 54.7014 52.4148 60.3619 46.142C61.0375 46.356 61.7562 46.4719 62.5012 46.4719H80.2869C81.032 46.4719 81.7508 46.356 82.4264 46.142ZM10.4426 1.5625C5.5584 1.5625 1.5625 5.5586 1.5625 10.4426V75.3601C1.5625 80.2443 5.5584 84.2402 10.4426 84.2402H43.1434C39.9473 76.6033 40.9143 68.3406 44.9865 61.1904C45.8184 59.7299 46.7309 58.2824 47.7037 56.8523C47.141 56.4883 46.7672 55.8551 46.7672 55.1373V52.4834C46.7672 51.359 47.6842 50.442 48.8086 50.442H52.5111C54.166 48.4078 55.8879 46.4277 57.6111 44.5164C57.1023 44.0338 56.6648 43.4767 56.3158 42.8633H48.8086C47.6842 42.8633 46.7672 41.9463 46.7672 40.8219V38.1678C46.7672 37.0433 47.6842 36.1263 48.8086 36.1263H56.1699C56.8043 34.891 57.79 33.8637 58.9936 33.1773L56.8721 31.056C55.5809 29.7648 54.8828 28.0998 54.777 26.4041H13.4025C12.2781 26.4041 11.3611 25.4871 11.3611 24.3627V16.35C11.3611 15.2256 12.2781 14.3086 13.4025 14.3086H58.3141C59.4385 14.3086 60.3555 15.2256 60.3555 16.35V18.9189C61.7961 18.5885 63.3283 18.6984 64.7287 19.2728C65.6756 17.0064 67.7295 15.3596 70.1543 14.9351V10.4426C70.1543 5.5586 66.1582 1.5625 61.2742 1.5625H10.4426ZM62.5014 43.3469C60.3084 43.3469 58.5146 41.5529 58.5146 39.3601C58.5146 37.1676 60.3086 35.3736 62.5014 35.3736H80.2871C82.4799 35.3736 84.2738 37.1676 84.2738 39.3603C84.2738 41.5527 82.4799 43.3469 80.2871 43.3469H62.5014ZM15.2781 36.1263H22.908C24.0324 36.1263 24.9494 37.0433 24.9494 38.1678V40.8217C24.9494 41.9461 24.0324 42.8631 22.908 42.8631H15.2781C14.1537 42.8631 13.2367 41.9461 13.2367 40.8217V38.1678C13.2367 37.0433 14.1537 36.1263 15.2781 36.1263ZM32.0434 64.7574C30.9189 64.7574 30.0019 65.6744 30.0019 66.7988V69.4527C30.0019 70.5771 30.9189 71.4941 32.0434 71.4941H39.6732C40.7977 71.4941 41.7146 70.5771 41.7146 69.4527V66.7988C41.7146 65.6744 40.7977 64.7574 39.6732 64.7574H32.0434ZM15.2781 64.7574H22.908C24.0324 64.7574 24.9494 65.6744 24.9494 66.7988V69.4527C24.9494 70.5771 24.0324 71.4941 22.908 71.4941H15.2781C14.1537 71.4941 13.2367 70.5771 13.2367 69.4527V66.7988C13.2367 65.6744 14.1537 64.7574 15.2781 64.7574ZM32.0434 50.4418C30.9189 50.4418 30.0019 51.3588 30.0019 52.4832V55.1371C30.0019 56.2615 30.9189 57.1785 32.0434 57.1785H39.6732C40.7977 57.1785 41.7146 56.2615 41.7146 55.1371V52.4832C41.7146 51.3588 40.7977 50.4418 39.6732 50.4418H32.0434ZM15.2781 50.4418H22.908C24.0324 50.4418 24.9494 51.3588 24.9494 52.4832V55.1371C24.9494 56.2615 24.0324 57.1785 22.908 57.1785H15.2781C14.1537 57.1785 13.2367 56.2615 13.2367 55.1371V52.4832C13.2367 51.359 14.1537 50.4418 15.2781 50.4418ZM32.0434 36.1263H39.6732C40.7977 36.1263 41.7146 37.0433 41.7146 38.1678V40.8217C41.7146 41.9461 40.7977 42.8631 39.6732 42.8631H32.0434C30.9189 42.8631 30.0019 41.9461 30.0019 40.8217V38.1678C30.0019 37.0433 30.9189 36.1263 32.0434 36.1263ZM62.4844 32.2488L59.0818 28.8463C57.4885 27.2529 57.4885 24.6457 59.0818 23.0525C60.4369 21.6972 62.5822 21.4683 64.1947 22.5033C64.7937 22.8877 65.4816 22.949 66.1389 22.6769C66.7961 22.4047 67.2391 21.8752 67.3908 21.1797C67.7924 19.3406 69.4389 17.9525 71.3941 17.9521C73.3139 17.9521 74.9885 19.3055 75.3977 21.1797C75.5494 21.8752 75.9924 22.4047 76.6496 22.6769C77.3072 22.9494 77.9949 22.8877 78.5936 22.5033C80.1777 21.4865 82.324 21.6699 83.7064 23.0521C85.2998 24.6455 85.2998 27.2531 83.7064 28.8463L80.3039 32.2488L80.2869 32.2486H62.5012L62.4844 32.2488Z" fill="#044484"/>
<path d="M73.0629 80.98C72.9158 80.9791 72.7705 80.9479 72.6358 80.8882C72.5012 80.8286 72.3802 80.7418 72.2803 80.6332L66.3111 74.1771C66.1118 73.9748 66 73.7016 66 73.4168C66 73.1321 66.1118 72.8588 66.3111 72.6565C66.5052 72.4741 66.7617 72.3738 67.0274 72.3764H69.9855C70.4838 72.3676 70.9697 72.2177 71.3873 71.9441C71.8049 71.6704 72.1374 71.284 72.3466 70.8291H68.0886C67.8259 70.7996 67.5832 70.6738 67.407 70.4757C67.2307 70.2776 67.1333 70.0211 67.1333 69.7553C67.1333 69.4895 67.2307 69.233 67.407 69.0349C67.5832 68.8368 67.8259 68.711 68.0886 68.6815H72.413C72.2018 68.2291 71.8685 67.8454 71.451 67.5742C71.0336 67.303 70.5487 67.1552 70.0518 67.1476H67.0937C66.831 67.1181 66.5883 66.9922 66.4121 66.7941C66.2359 66.596 66.1384 66.3396 66.1384 66.0738C66.1384 65.808 66.2359 65.5515 66.4121 65.3534C66.5883 65.1553 66.831 65.0295 67.0937 65H76.3792C76.6419 65.0295 76.8846 65.1553 77.0608 65.3534C77.237 65.5515 77.3345 65.808 77.3345 66.0738C77.3345 66.3396 77.237 66.596 77.0608 66.7941C76.8846 66.9922 76.6419 67.1181 76.3792 67.1476H74.0048C74.3125 67.6148 74.5328 68.1347 74.6547 68.6815H76.4057C76.6684 68.711 76.9111 68.8368 77.0873 69.0349C77.2635 69.233 77.361 69.4895 77.361 69.7553C77.361 70.0211 77.2635 70.2776 77.0873 70.4757C76.9111 70.6738 76.6684 70.7996 76.4057 70.8291H74.668C74.4257 71.8782 73.8378 72.8141 72.9998 73.4849C72.1618 74.1556 71.1229 74.5218 70.0518 74.5239H69.5477L73.9119 79.2459C74.1104 79.446 74.2218 79.717 74.2218 79.9996C74.2218 80.2821 74.1104 80.5532 73.9119 80.7532C73.7938 80.8483 73.6574 80.9175 73.5112 80.9566C73.365 80.9956 73.2124 81.0036 73.0629 80.98Z" fill="white"/>
</g>
</g>
<defs>
<clipPath id="clip0_4235_14">
<rect width="100" height="100" fill="white"/>
</clipPath>
</defs>
</svg>
