<svg width="100" height="100" viewBox="0 0 100 100" fill="none" xmlns="http://www.w3.org/2000/svg">
<path d="M62.6816 82.2572C61.2363 81.039 60.3076 79.2014 60.3076 77.1573V72.1814C60.3076 68.5887 63.1567 65.6567 66.7285 65.5536C63.6314 62.1881 61.7319 57.687 61.7319 52.7523C61.7319 46.7232 64.561 41.3551 68.938 37.8657V11.1482C68.938 7.26648 65.7788 4.10742 61.8975 4.10742H9.04004C5.1587 4.10742 2 7.26648 2 11.1482V87.6875C2 91.5897 5.1587 94.7281 9.04004 94.7281H60.7617C60.4727 93.9848 60.3076 93.1795 60.3076 92.3331V87.357C60.3076 85.313 61.2363 83.4753 62.6816 82.2572ZM22.4199 85.0859C22.4199 86.1802 21.5322 87.068 20.4375 87.068H14.5327C13.459 87.068 12.5708 86.1802 12.5708 85.0859V79.2014C12.5708 78.1072 13.459 77.2194 14.5327 77.2194H20.4375C21.5322 77.2194 22.4199 78.1072 22.4199 79.2014V85.0859ZM22.4199 68.4029C22.4199 69.4973 21.5322 70.3851 20.4375 70.3851H14.5327C13.459 70.3851 12.5708 69.4973 12.5708 68.4029V62.4978C12.5708 61.424 13.459 60.5362 14.5327 60.5362H20.4375C21.5322 60.5362 22.4199 61.4241 22.4199 62.4978V68.4029ZM22.4199 51.6992C22.4199 52.7936 21.5322 53.6814 20.4375 53.6814H14.5327C13.459 53.6814 12.5708 52.7936 12.5708 51.6992V45.8148C12.5708 44.7206 13.459 43.8326 14.5327 43.8326H20.4375C21.5322 43.8326 22.4199 44.7206 22.4199 45.8148V51.6992ZM40.3833 85.0859C40.3833 86.1802 39.4951 87.068 38.4214 87.068H32.5166C31.4219 87.068 30.5342 86.1802 30.5342 85.0859V79.2014C30.5342 78.1072 31.4219 77.2194 32.5166 77.2194H38.4214C39.4951 77.2194 40.3833 78.1072 40.3833 79.2014V85.0859ZM40.3833 68.4029C40.3833 69.4973 39.4951 70.3851 38.4214 70.3851H32.5166C31.4219 70.3851 30.5342 69.4973 30.5342 68.4029V62.4978C30.5342 61.424 31.4219 60.5362 32.5166 60.5362H38.4214C39.4951 60.5362 40.3833 61.4241 40.3833 62.4978V68.4029ZM40.3833 51.6992C40.3833 52.7936 39.4951 53.6814 38.4214 53.6814H32.5166C31.4219 53.6814 30.5342 52.7936 30.5342 51.6992V45.8148C30.5342 44.7206 31.4219 43.8326 32.5166 43.8326H38.4214C39.4951 43.8326 40.3833 44.7206 40.3833 45.8148V51.6992ZM58.3667 85.0859C58.3667 86.1802 57.4785 87.068 56.3848 87.068H50.5C49.4058 87.068 48.5181 86.1802 48.5181 85.0859V79.2014C48.5181 78.1072 49.4058 77.2194 50.5 77.2194H56.3848C57.4785 77.2194 58.3667 78.1072 58.3667 79.2014V85.0859ZM58.3667 68.4029C58.3667 69.4973 57.4785 70.3851 56.3848 70.3851H50.5C49.4058 70.3851 48.5181 69.4973 48.5181 68.4029V62.4978C48.5181 61.424 49.4058 60.5362 50.5 60.5362H56.3848C57.4785 60.5362 58.3667 61.4241 58.3667 62.4978V68.4029ZM58.3667 51.6992C58.3667 52.7936 57.4785 53.6814 56.3848 53.6814H50.5C49.4058 53.6814 48.5181 52.7936 48.5181 51.6992V45.8148C48.5181 44.7206 49.4058 43.8326 50.5 43.8326H56.3848C57.4785 43.8326 58.3667 44.7206 58.3667 45.8148V51.6992ZM58.3667 33.0755H12.5708V14.6787H58.3667V33.0755Z" fill="#044484"/>
<path d="M96.5708 52.7482C96.5708 43.9713 89.4746 36.875 80.6978 36.875C71.9395 36.875 64.8252 43.9713 64.8252 52.7482C64.8252 61.5064 71.9395 68.6211 80.6978 68.6211C89.4746 68.6211 96.5708 61.5064 96.5708 52.7482Z" fill="#044484"/>
<path d="M82.5952 59.6591C82.4786 59.6584 82.3635 59.6337 82.2568 59.5864C82.1502 59.5392 82.0543 59.4704 81.9752 59.3843L77.2464 54.27C77.0886 54.1097 77 53.8933 77 53.6677C77 53.4421 77.0886 53.2256 77.2464 53.0654C77.4002 52.9209 77.6034 52.8414 77.8139 52.8435H80.1572C80.552 52.8365 80.9369 52.7178 81.2677 52.501C81.5985 52.2842 81.8619 51.9781 82.0277 51.6177H78.6545C78.4464 51.5944 78.2542 51.4947 78.1146 51.3377C77.975 51.1808 77.8978 50.9776 77.8978 50.7671C77.8978 50.5565 77.975 50.3533 78.1146 50.1964C78.2542 50.0395 78.4464 49.9398 78.6545 49.9164H82.0802C81.913 49.558 81.6489 49.2541 81.3182 49.0393C80.9875 48.8244 80.6034 48.7073 80.2098 48.7013H77.8664C77.6583 48.6779 77.4661 48.5782 77.3265 48.4213C77.1869 48.2644 77.1097 48.0612 77.1097 47.8506C77.1097 47.6401 77.1869 47.4369 77.3265 47.28C77.4661 47.123 77.6583 47.0234 77.8664 47H85.2222C85.4303 47.0234 85.6226 47.123 85.7622 47.28C85.9018 47.4369 85.979 47.6401 85.979 47.8506C85.979 48.0612 85.9018 48.2644 85.7622 48.4213C85.6226 48.5782 85.4303 48.6779 85.2222 48.7013H83.3412C83.585 49.0714 83.7595 49.4832 83.8562 49.9164H85.2433C85.4514 49.9398 85.6436 50.0395 85.7832 50.1964C85.9228 50.3533 86 50.5565 86 50.7671C86 50.9776 85.9228 51.1808 85.7832 51.3377C85.6436 51.4947 85.4514 51.5944 85.2433 51.6177H83.8667C83.6747 52.4488 83.209 53.1902 82.5451 53.7216C81.8812 54.2529 81.0583 54.543 80.2098 54.5447H79.8105L83.2677 58.2854C83.4249 58.4439 83.5132 58.6586 83.5132 58.8824C83.5132 59.1063 83.4249 59.321 83.2677 59.4794C83.1742 59.5548 83.0661 59.6096 82.9503 59.6406C82.8345 59.6715 82.7135 59.6778 82.5952 59.6591Z" fill="white"/>
<path d="M94.5581 83.8052H66.8374C64.937 83.8052 63.396 85.3459 63.396 87.2467V92.4507C63.396 94.3514 64.937 95.8922 66.8374 95.8922H94.5581C96.459 95.8922 98 94.3514 98 92.4507V87.2467C98 85.3459 96.459 83.8052 94.5581 83.8052Z" fill="#044484"/>
<path d="M94.5581 68.6211H80.6977H66.8374C64.937 68.6211 63.396 70.1619 63.396 72.0625V77.2666C63.396 79.1672 64.937 80.7081 66.8374 80.7081H94.5581C96.459 80.7081 98 79.1672 98 77.2666V72.0625C98 70.1618 96.459 68.6211 94.5581 68.6211Z" fill="#044484"/>
</svg>
