<?xml version="1.0" encoding="utf-8"?>
<!-- Generator: Adobe Illustrator 24.3.0, SVG Export Plug-In . SVG Version: 6.00 Build 0)  -->
<svg version="1.1" id="Layer_1" xmlns="http://www.w3.org/2000/svg" xmlns:xlink="http://www.w3.org/1999/xlink" x="0px" y="0px"
	 viewBox="0 0 1000 641.4" style="enable-background:new 0 0 1000 641.4;" xml:space="preserve">
<style type="text/css">
	.st0{fill:#0079C1;}
	.st1{fill:#024282;}
</style>
<g>
	<g>
		<path class="st0" d="M566.4,292.5c4.9-2.4,9.9-4.7,14.8-7.2c19.5-9.8,31.9-25.8,39.7-45.9c2.7-6.9,6.3-13.4,10.1-19.7
			c1.6-2.6,4.6-4.4,7.2-6.1c0.9-0.6,2.7,0.4,4.1,0.6c-0.3,1.3-0.2,3.3-1,3.9c-7.2,5-9.8,12.8-12.4,20.6
			c-3.7,10.9-9.5,20.7-17.4,29.2c-1.2,1.3-2.3,2.8-3.4,4.2c0.4,0.4,0.7,0.8,1.1,1.1c3.4-3.3,7.6-6.1,10.2-10
			c5.2-7.8,9.7-16.2,14.4-24.4c2.6-4.6,4.9-9.4,7.8-13.8c1.2-1.8,3.8-2.7,7.1-4.9c-0.6,3.2-0.6,4.9-1.1,6.4
			c-8.6,22.1-17,44.3-26,66.2c-4.9,11.8-15.4,18.8-26,24.7c-9.7,5.4-20,10-30.5,13.7c-10.4,3.6-19.9,8.5-28.5,15.2
			c-6.8,5.3-9.5,13.1-12.1,20.9c-0.9,2.7-1.8,5.3-2.8,8.4c-4.5-10.7-8.7-20.7-13-30.7c-0.7,0.3-1.4,0.5-2.1,0.8
			c2.2,6.5,4.7,12.9,6.6,19.5c1.4,4.7,2.2,9.6,2.9,14.5c0.8,5.7-1.8,9.5-7.2,11.4c-8.2,3-16.6,3.2-24.5-0.4
			c-3.7-1.7-6.9-5.3-9.2-8.8c-2.5-3.9-4.2-8.6-5.3-13.1c-4-16.7-15-26.9-30.1-33.3c-12-5.1-24.4-9.4-36.3-14.9
			c-6.3-2.9-12-7.4-17.6-11.6c-7.6-5.7-13.1-13-16.5-22.1c-7.4-19.7-15.3-39.3-22.8-58.9c-0.7-1.9-0.8-4.1-1.2-6.1
			c0.6-0.4,1.1-0.7,1.7-1.1c2.2,2,5.1,3.7,6.6,6.2c3.1,5.2,5,11.1,8.2,16.2c5.7,8.9,11.9,17.5,18.1,26c1.1,1.5,3,2.5,4.7,3.8
			c0.3-0.9,0.5-1.1,0.4-1.2c-11.4-12.6-18.8-27.3-24.3-43.3c-1.3-3.8-5.4-6.7-8-10.1c-0.9-1.2-1.1-2.8-1.6-4.2
			c1.5-0.2,3.7-1.1,4.5-0.5c3.1,2.4,6.5,4.8,8.4,8.1c4,6.9,7.7,14,10.5,21.5c8.6,23,25.7,37,47.3,46.7c1.7,0.8,3.4,1.6,5.3,2.5
			c-4.7,2.2-10.6,1-16.6-3.7c-8.3-6.5-17-6.3-25.5-1.2c-2.6,1.5-5.3,5.5-5.2,8.3c0.1,2.2,4,5.6,6.7,6.3c9.1,2.1,17.1,6,24.5,11.6
			c4.4,3.4,9.4,4.5,15,3.6c4.2-0.7,8.6-0.1,13.2-1.3c-3.6-0.8-7.3-1.4-10.9-2.4c-5.7-1.7-11.4-3.6-16.9-5.7
			c-7.4-2.8-14.7-5.8-21.9-9c-2.2-1-4.2-2.7-6.3-4.1c1.7-1.7,3.1-3.9,5.1-4.9c5.8-2.9,12-3.5,17.1,1.1c9.3,8.6,19,7.4,29.6,3.2
			c17.9-7.2,38.8-3.1,49.2,9.8c3.6,4.5,6,10.1,8.9,15.2c1.1,1.9,2,3.9,3.5,7c2.8-5.5,4.8-9.8,7.1-14c10.1-17.9,29.2-25.6,49.1-19.9
			c2.5,0.7,5.1,1.6,7.5,2.6c9.9,4.1,19,3.8,27.5-3.8c4.8-4.3,13.1-4.3,18.6-0.6c1.5,1,3,3,3.2,4.7c0.1,1-2.4,2.6-4,3.2
			c-3,1.1-6.3,1.6-9.4,2.3c-1.3,0.3-2.7,0.5-3.8,1.2c-11.3,7.6-23.6,12.6-37.3,13.7c-0.6,0.1-1.2,0.7-3.2,1.8
			c13.6-0.9,25.9,2.2,36.6-7.7c4.5-4.2,12.2-4.8,18.1-7.7c2.8-1.3,6.6-4,6.8-6.2c0.2-2.8-2.3-6.8-4.8-8.5
			c-7.9-5.4-17.9-4.7-25.5,1.2C578.3,292.8,572.8,294.4,566.4,292.5z"/>
		<g>
			<g>
				<path class="st0" d="M502.9,199.9c14.9,3.2,29.2,6.3,44.7,9.7c-15.1,20.5-30.5,41.6-44.8,61
					C502.4,270.5,502.9,223.3,502.9,199.9z"/>
				<path class="st0" d="M452.8,209.7c14.6-3.2,27.8-6.2,41.1-9c4.3-0.9,3.9,2.5,3.9,5.1c0,20.1,0,62.3-0.4,64.8
					C482.4,250,467.9,230.3,452.8,209.7z"/>
				<path class="st0" d="M417.5,195.6c10.4-13.5,19.7-25.9,29.4-38c1.4-1.7,4.5-2.6,6.9-2.9c3.7-0.5,7.5-0.1,12.3-0.1
					c-1.6,5-2.9,9.3-4.3,13.5c-3.8,10.7-7.5,21.5-11.5,32.1c-0.6,1.7-3.2,4.3-4.2,4C436.8,201.7,427.7,198.7,417.5,195.6z"/>
				<path class="st0" d="M533.8,154.7c5.9,0,10.5-0.2,15,0.1c1.5,0.1,3.4,1,4.3,2.2c9.6,12.3,19,24.6,28.4,37
					c0.2,0.3,0.1,0.7,0.4,1.9c-9.2,2.8-18.5,5.7-27.9,8.4c-0.8,0.2-2.6-0.9-2.9-1.8C545.3,186.9,539.7,171.2,533.8,154.7z"/>
				<path class="st0" d="M474.4,154.8c17.4,0,33.6,0,51.4,0c-8.7,12.9-16.8,24.9-25.6,37.9C491.4,179.8,483.2,167.8,474.4,154.8z"/>
				<path class="st0" d="M546.6,204.6c-14.9-3.2-28-6.1-42.6-9.2c8.6-12.8,16.7-24.7,25.7-38.1C535.5,173.4,540.8,188.1,546.6,204.6
					z"/>
				<path class="st0" d="M470.5,157.3c9.1,13.4,17,25.2,25.7,38c-14.6,3.2-27.8,6.1-42.5,9.3C459.4,188.5,464.7,173.7,470.5,157.3z"
					/>
				<path class="st0" d="M425.7,203.2c6.6,2.3,13.2,4.4,19.7,6.9c1.8,0.7,3.5,2.3,4.7,3.9c9.4,12.6,18.7,25.3,27.9,38
					c0.4,0.6,0.6,1.3,0.2,2.5c-17.8-16.7-35.6-33.5-53.4-50.2C425.2,203.9,425.5,203.6,425.7,203.2z"/>
				<path class="st0" d="M575.5,204.2c-17.8,16.7-35.6,33.5-53.4,50.2c-0.3-0.3-0.6-0.6-0.9-0.9c8.3-11.4,17.4-22.4,24.8-34.4
					c6.9-11.2,18.6-11.8,28.6-16.2C574.9,203.5,575.2,203.9,575.5,204.2z"/>
			</g>
		</g>
		<g>
			<path class="st1" d="M409,188.7c-28-4.9-56-9.9-84-14.8c0.2-0.9,0.3-1.8,0.5-2.7c28,4.9,56,9.9,84,14.8
				C409.3,186.9,409.1,187.8,409,188.7z"/>
			<path class="st1" d="M440.2,134.3c-18.4-21.6-36.9-43.3-55.3-64.9c0.7-0.6,1.4-1.2,2.1-1.8c18.4,21.6,36.8,43.3,55.3,64.9
				C441.6,133.1,440.9,133.7,440.2,134.3z"/>
			<path class="st1" d="M467.3,117.5c-9.5-26.8-18.9-53.6-28.4-80.4c0.9-0.3,1.7-0.6,2.6-0.9c9.5,26.8,18.9,53.6,28.4,80.4
				C469,116.8,468.1,117.2,467.3,117.5z"/>
			<path class="st1" d="M499.2,111.5c-0.3-28.4-0.6-56.9-0.9-85.3c0.9,0,1.8,0,2.7,0c0.3,28.4,0.6,56.8,0.9,85.3
				C501,111.4,500.1,111.4,499.2,111.5z"/>
			<path class="st1" d="M591.1,189.1c28-5.1,55.9-10.2,83.9-15.3c-0.2-0.9-0.3-1.8-0.5-2.7c-28,5.1-55.9,10.2-83.9,15.3
				C590.8,187.3,590.9,188.2,591.1,189.1z"/>
			<path class="st1" d="M558.8,131.9c18.2-21.9,36.3-43.7,54.5-65.6c0.7,0.6,1.4,1.2,2.1,1.7c-18.2,21.9-36.3,43.7-54.5,65.6
				C560.2,133,559.5,132.4,558.8,131.9z"/>
			<path class="st1" d="M530.2,116.8c9.6-26.7,19.3-53.5,28.9-80.2c0.9,0.3,1.7,0.6,2.6,0.9c-9.6,26.7-19.3,53.5-28.9,80.2
				C532,117.4,531.1,117.1,530.2,116.8z"/>
			<path class="st1" d="M420,158.5c-24.7-14.1-49.3-28.3-74-42.4c0.5-0.8,0.9-1.6,1.4-2.4c24.7,14.1,49.3,28.3,74,42.4
				C420.9,156.9,420.5,157.7,420,158.5z"/>
			<path class="st1" d="M579.5,156.8c24.6-14.3,49.1-28.7,73.7-43c0.5,0.8,0.9,1.6,1.4,2.3c-24.6,14.3-49.1,28.6-73.7,43
				C580.4,158.4,580,157.6,579.5,156.8z"/>
		</g>
	</g>
	<g>
		<path class="st0" d="M43.7,513.5v22H25.6v-71.2h32.8c8.3,0,14.5,1.8,18.5,5.5c4,3.7,6,9.5,6,17.3v4.3c0,10-3.6,16.5-10.8,19.6
			l13.2,24.6H65.8l-11-22H43.7z M43.7,499.3H57c5.3,0,7.9-2.6,7.9-7.7v-5.3c0-5.1-2.6-7.7-7.9-7.7H43.7V499.3z"/>
		<path class="st0" d="M117.3,513.5v22H99.3v-71.2H132c8.3,0,14.5,1.8,18.5,5.5c4,3.7,6,9.5,6,17.3v4.3c0,10-3.6,16.5-10.8,19.6
			l13.2,24.6h-19.6l-11-22H117.3z M117.3,499.3h13.3c5.3,0,7.9-2.6,7.9-7.7v-5.3c0-5.1-2.6-7.7-7.9-7.7h-13.3V499.3z"/>
		<path class="st0" d="M222.8,521.7H236v-14.2h-12v-13.7h29.3v40.7c-6.9,1.3-14.1,1.9-21.7,1.9h-10.9c-9.2,0-15.8-1.9-19.8-5.8
			c-4-3.9-6-10.1-6-18.9v-23.6c0-8.7,2-15,6-18.9c4-3.9,10.6-5.8,19.8-5.8h7.6c7.6,0,14.4,0.6,20.3,1.7v13h-25.9
			c-3.3,0-5.8,0.8-7.4,2.5c-1.6,1.7-2.4,4.3-2.4,7.9v23c0,3.7,0.8,6.3,2.4,7.9C217.1,520.9,219.5,521.7,222.8,521.7z"/>
		<path class="st0" d="M288,513.5v22h-18.1v-71.2h32.8c8.3,0,14.5,1.8,18.5,5.5c4,3.7,6,9.5,6,17.3v4.3c0,10-3.6,16.5-10.8,19.6
			l13.2,24.6h-19.6l-11-22H288z M288,499.3h13.3c5.3,0,7.9-2.6,7.9-7.7v-5.3c0-5.1-2.6-7.7-7.9-7.7H288V499.3z"/>
		<path class="st0" d="M379.1,536.4h-11c-9.2,0-15.8-1.9-19.8-5.8c-4-3.9-6-10.1-6-18.9v-23.6c0-8.7,2-15,6-18.9
			c4-3.9,10.6-5.8,19.8-5.8h11c9.2,0,15.8,1.9,19.8,5.8c4,3.9,6,10.2,6,18.9v23.6c0,8.7-2,15-6,18.9
			C394.9,534.5,388.3,536.4,379.1,536.4z M370.1,521.7h6.9c3.4,0,5.9-0.8,7.5-2.4c1.6-1.6,2.4-4.2,2.4-7.9v-23
			c0-3.7-0.8-6.3-2.4-7.9c-1.6-1.6-4.1-2.4-7.5-2.4h-6.9c-3.4,0-5.9,0.8-7.5,2.4c-1.6,1.6-2.4,4.3-2.4,7.9v23c0,3.7,0.8,6.3,2.4,7.9
			C364.3,520.9,366.8,521.7,370.1,521.7z"/>
		<path class="st0" d="M471.8,464.3L484,507l11.6-42.7h18.6L493,535.5h-17.1l-11.6-42.4l-11.6,42.4h-17.1l-21.1-71.2H433l11.6,42.7
			l12.2-42.7H471.8z"/>
		<path class="st0" d="M601.4,464.3l12.2,42.7l11.6-42.7h18.6l-21.1,71.2h-17.1l-11.6-42.4l-11.6,42.4h-17.1l-21.1-71.2h18.6
			l11.6,42.7l12.2-42.7H601.4z"/>
		<path class="st0" d="M704.8,535.5h-49.2v-71.2h48.7v14.3h-30.6v13.2h28.6v14.1h-28.6v15.4h31.1V535.5z"/>
		<path class="st0" d="M764.7,535.5l-4-12.3h-25.4l-4,12.3h-18.7l25.2-71.2h20.3l25.2,71.2H764.7z M748,484.7l-8,24.2h16L748,484.7z
			"/>
		<path class="st0" d="M793.5,464.3h18.1v56.5h31.1v14.7h-49.2V464.3z"/>
		<path class="st0" d="M837.7,479v-14.7h58.9V479h-20.5v56.5h-18V479H837.7z"/>
		<path class="st0" d="M926.3,535.5h-18.1v-71.2h18.1v28.3h22.4v-28.3h18.1v71.2h-18.1v-28.2h-22.4V535.5z"/>
	</g>
	<g>
		<path class="st1" d="M127,585.5l7,1.5c2.7,0.6,4.6,1.5,5.8,2.9s1.7,3.2,1.7,5.6v1.9c0,5.3-3.2,8-9.5,8h-4.1
			c-3.6,0-6.6-0.2-8.7-0.6v-3.8h12.3c3.3,0,5-1.3,5-4v-1.5c0-1.2-0.4-2.1-1.1-2.8c-0.7-0.7-1.9-1.2-3.6-1.5l-6.6-1.4
			c-2.7-0.6-4.6-1.5-5.8-2.8c-1.2-1.3-1.7-3-1.7-5.3v-1.5c0-5.2,3.2-7.9,9.5-7.9h3.6c3.5,0,6.4,0.2,8.7,0.6v3.7h-11.4
			c-3.6,0-5.4,1.3-5.4,3.9v0.8c0,1.1,0.3,2,1,2.6C124.4,584.7,125.4,585.2,127,585.5z"/>
		<path class="st1" d="M179,605l-2.8-7.5h-14.8l-2.8,7.5h-5.2l12.2-32.3h6.2l12.2,32.3H179z M168.8,577.6l-5.8,15.5h11.6
			L168.8,577.6z"/>
		<path class="st1" d="M216.1,605h-4.5l-9.8-22.6V605h-5v-32.3h5.9l11.1,25.9l11.1-25.9h5.9V605h-5v-22.6L216.1,605z"/>
		<path class="st1" d="M251.9,593.6V605h-5.1v-32.3h14.5c3.5,0,6,0.8,7.7,2.3c1.6,1.5,2.5,4,2.5,7.4v1.9c0,4.8-1.9,7.7-5.6,8.7
			l6.7,12H267l-6.2-11.4H251.9z M251.9,589.3h9.4c1.8,0,3.1-0.4,3.9-1.2c0.8-0.8,1.2-2.1,1.2-3.8V582c0-1.7-0.4-3-1.2-3.8
			c-0.8-0.8-2.1-1.2-3.9-1.2h-9.4V589.3z"/>
		<path class="st1" d="M292.1,605h-5.1v-32.3h5.1V605z"/>
		<path class="st1" d="M323,605h-14.7v-32.3H323c3.8,0,6.6,0.9,8.3,2.6c1.8,1.7,2.6,4.5,2.6,8.4V594c0,3.9-0.9,6.7-2.6,8.4
			C329.6,604.1,326.8,605,323,605z M313.4,600.6h9.2c2.2,0,3.8-0.5,4.9-1.5c1-1,1.5-2.7,1.5-5.2v-10.2c0-2.5-0.5-4.2-1.5-5.2
			c-1-1-2.6-1.5-4.9-1.5h-9.2V600.6z"/>
		<path class="st1" d="M363.9,605h-14.7v-32.3h14.7c3.8,0,6.6,0.9,8.3,2.6c1.8,1.7,2.6,4.5,2.6,8.4V594c0,3.9-0.9,6.7-2.6,8.4
			C370.5,604.1,367.7,605,363.9,605z M354.3,600.6h9.2c2.2,0,3.8-0.5,4.9-1.5c1-1,1.5-2.7,1.5-5.2v-10.2c0-2.5-0.5-4.2-1.5-5.2
			c-1-1-2.6-1.5-4.9-1.5h-9.2V600.6z"/>
		<path class="st1" d="M395.1,605H390v-32.3h5.1v13.9h15.3v-13.9h5.1V605h-5.1v-13.9h-15.3V605z"/>
		<path class="st1" d="M436.7,605h-5.1v-32.3h5.1V605z"/>
		<path class="st1" d="M485.1,605h-14.7v-32.3h14.4c3,0,5.3,0.7,6.9,2.1s2.4,3.3,2.4,5.8v1.8c0,1.4-0.3,2.6-0.9,3.6
			c-0.6,1-1.5,1.8-2.6,2.2c2.6,0.9,3.9,3,3.9,6.3v2.5c0,2.5-0.8,4.5-2.4,5.9S488.2,605,485.1,605z M475.5,586.2h8.9
			c1.4,0,2.6-0.3,3.4-1c0.8-0.7,1.2-1.7,1.2-3V581c0-1.3-0.4-2.3-1.2-3c-0.8-0.7-2-1-3.4-1h-8.9V586.2z M484.7,590.4h-9.2v10.3h9.2
			c1.4,0,2.6-0.4,3.4-1.1c0.8-0.7,1.3-1.7,1.3-3v-2.1c0-1.3-0.4-2.3-1.3-3C487.3,590.7,486.2,590.4,484.7,590.4z"/>
		<path class="st1" d="M530.4,605h-21.2v-32.3h20.9v4.3h-15.9v9.2h15v4.3h-15v10.3h16.1V605z"/>
		<path class="st1" d="M555.9,600.9h8.8v-9.8H557v-4.4h12.7v17.8c-2.9,0.5-6.2,0.8-10,0.8h-4.2c-3.8,0-6.6-0.9-8.3-2.6
			c-1.8-1.7-2.6-4.5-2.6-8.4v-10.9c0-3.9,0.9-6.7,2.6-8.4c1.8-1.7,4.5-2.6,8.3-2.6h4c3,0,5.7,0.2,8,0.6v3.7h-11.6
			c-2.2,0-3.8,0.5-4.9,1.5c-1,1-1.5,2.8-1.5,5.2v10.8c0,2.4,0.5,4.1,1.5,5.2C552.1,600.4,553.7,600.9,555.9,600.9z"/>
		<path class="st1" d="M590.6,605h-5.1v-32.3h5.1V605z"/>
		<path class="st1" d="M627.1,572.7h5.1V605h-5.8l-14.4-24.6V605h-5.1v-32.3h5.8l14.4,24.6V572.7z"/>
		<path class="st1" d="M656.8,585.5l7,1.5c2.7,0.6,4.6,1.5,5.8,2.9c1.1,1.3,1.7,3.2,1.7,5.6v1.9c0,5.3-3.2,8-9.5,8h-4.1
			c-3.6,0-6.6-0.2-8.7-0.6v-3.8h12.3c3.3,0,5-1.3,5-4v-1.5c0-1.2-0.4-2.1-1.1-2.8c-0.7-0.7-1.9-1.2-3.6-1.5l-6.6-1.4
			c-2.7-0.6-4.6-1.5-5.8-2.8c-1.2-1.3-1.7-3-1.7-5.3v-1.5c0-5.2,3.2-7.9,9.5-7.9h3.6c3.5,0,6.4,0.2,8.7,0.6v3.7H658
			c-3.6,0-5.4,1.3-5.4,3.9v0.8c0,1.1,0.3,2,1,2.6C654.2,584.7,655.3,585.2,656.8,585.5z"/>
		<path class="st1" d="M709.1,605H704v-32.3h5.1v13.9h15.3v-13.9h5.1V605h-5.1v-13.9h-15.3V605z"/>
		<path class="st1" d="M766.6,605h-21.2v-32.3h20.9v4.3h-15.9v9.2h15v4.3h-15v10.3h16.1V605z"/>
		<path class="st1" d="M786.4,593.6V605h-5.1v-32.3h14.5c3.5,0,6,0.8,7.7,2.3c1.6,1.5,2.5,4,2.5,7.4v1.9c0,4.8-1.9,7.7-5.6,8.7
			l6.7,12h-5.5l-6.2-11.4H786.4z M786.4,589.3h9.4c1.8,0,3.1-0.4,3.9-1.2c0.8-0.8,1.2-2.1,1.2-3.8V582c0-1.7-0.4-3-1.2-3.8
			c-0.8-0.8-2.1-1.2-3.9-1.2h-9.4V589.3z"/>
		<path class="st1" d="M842.5,605h-21.2v-32.3h20.9v4.3h-15.9v9.2h15v4.3h-15v10.3h16.1V605z"/>
	</g>
</g>
</svg>
